<svg xmlns="http://www.w3.org/2000/svg" xmlns:xlink="http://www.w3.org/1999/xlink" width="1732" height="990" viewBox="0 0 1732 990">
  <defs>
    <style>
      .cls-1 {
        fill: none;
      }

      .cls-2 {
        fill: #ffd000;
      }

      .cls-3 {
        fill: gold;
      }

      .cls-4 {
        fill: url(#New_Pattern2);
      }
    </style>
    <pattern id="New_Pattern2" data-name="New Pattern2" width="576.603" height="656.499" patternUnits="userSpaceOnUse" viewBox="0 0 576.603 656.499">
      <rect class="cls-1" width="576.603" height="656.499"/>
      <g>
        <g id="Layer_2" data-name="Layer 2">
          <g>
            <path class="cls-2" d="M366.23,594.062c.9-.271,3.4-1.131,6.8-4.688,3.582-3.745,5.523-7.715,7.287-12.151a105.753,105.753,0,0,0,5.657-19.717c1.907-12.144-.1-21.486-3.227-23.448a12.834,12.834,0,0,0-4.587-1.712,11.479,11.479,0,0,0-4.072.219,14.707,14.707,0,0,0-5.209,2.264,46.573,46.573,0,0,0-9.089,8.227,50.971,50.971,0,0,0-9.042,15.708c-.7,1.839-7.763,20.985,1.92,31.371a17.256,17.256,0,0,0,4.3,3.337A14.193,14.193,0,0,0,366.23,594.062Z"/>
            <path class="cls-2" d="M383.927,600.5c-.517-.788-1.875-3.05-2.194-7.962-.336-5.171.726-9.46,2.227-13.992a105.665,105.665,0,0,1,8.332-18.74c6.343-10.529,13.882-16.394,17.537-15.888a12.854,12.854,0,0,1,4.616,1.637,11.52,11.52,0,0,1,2.978,2.788,14.726,14.726,0,0,1,2.535,5.084,46.652,46.652,0,0,1,1.677,12.148,50.962,50.962,0,0,1-3.166,17.848c-.641,1.862-7.536,21.068-21.626,22.8a17.293,17.293,0,0,1-5.438-.209A14.193,14.193,0,0,1,383.927,600.5Z"/>
            <path class="cls-2" d="M334.091,563.08c3.931.613,6.338,3.9,7.136,4.985,7.193,9.815.384,26.084-1.694,31.025-3.063,7.281-5.784,13.759-12.158,15.544a14.657,14.657,0,0,1-12.706-2.8c-9.706-7.838-3.9-25.917-3.259-28.06a38.119,38.119,0,0,1,14.741-18.395C329.511,563.271,331.894,562.734,334.091,563.08Z"/>
            <path class="cls-2" d="M427.474,597.081c-3.406-2.058-7.36-1.09-8.67-.769-11.815,2.893-17.05,19.733-18.635,24.856-2.333,7.544-4.41,14.259-.673,19.726a14.663,14.663,0,0,0,11.534,6.023c12.472.237,19.64-17.344,20.526-19.4a38.143,38.143,0,0,0,.525-23.571C430.858,600.175,429.378,598.231,427.474,597.081Z"/>
            <path class="cls-2" d="M332.249,557.572a9.012,9.012,0,0,1,10.346,3.051,33.558,33.558,0,0,1,6.109-21.055,20.554,20.554,0,0,0-5.693,2.265c-7.913,4.636-10.2,13.277-10.762,15.739Z"/>
            <path class="cls-2" d="M375.744,525.417a9.355,9.355,0,0,1,9.924,2.9,52.14,52.14,0,0,1,6.425-20.939,22.652,22.652,0,0,0-9.764,5.518,22.967,22.967,0,0,0-6.587,12.524Z"/>
            <path class="cls-2" d="M432.422,594.05a9.01,9.01,0,0,0-9.885-4.316,33.557,33.557,0,0,0,8.849-20.059,20.613,20.613,0,0,1,2.9,5.4c3.083,8.64-.717,16.73-1.869,18.977Z"/>
            <path class="cls-2" d="M420.743,541.8a9.355,9.355,0,0,0-9.464-4.163,52.139,52.139,0,0,0,8.535-20.172,22.678,22.678,0,0,1,3.934,10.5,22.964,22.964,0,0,1-3,13.83Z"/>
            <path class="cls-2" d="M371.434,606.939a13.764,13.764,0,0,1,5.979,4.565,30.117,30.117,0,0,1,1.766,3.725,52.407,52.407,0,0,1,2.005,7.357,28.524,28.524,0,0,0,3.289,7.565c.847,1.381,1.389,2.542,8.28,12.793a54.972,54.972,0,0,1,4.554,7.624,47.8,47.8,0,0,1,2.078,5.069,28.541,28.541,0,0,1-.2,14.1,14.672,14.672,0,0,1-7.263,9.412,16.1,16.1,0,0,1-15.1-.622,74.147,74.147,0,0,1-14.035-9.311,44.018,44.018,0,0,0-11.547-6.752,55.354,55.354,0,0,0-13.185-2.254,55.167,55.167,0,0,1-20.49-3.163,14.324,14.324,0,0,1-7.732-19.848,28.63,28.63,0,0,1,8.907-10.923,34.675,34.675,0,0,1,3.29-1.888,36.134,36.134,0,0,1,7.349-2.722c6.693-1.789,11.651-3.456,17.158-5.324a27.649,27.649,0,0,0,6.4-3.1c2.463-1.623,3.442-2.865,6.175-4.458a26.15,26.15,0,0,1,4.813-2.186,13.754,13.754,0,0,1,7.513.347Z"/>
          </g>
        </g>
        <g id="Layer_2-2" data-name="Layer 2">
          <g>
            <path class="cls-2" d="M496.875,650.311a9.357,9.357,0,0,1,9.925,2.9,52.122,52.122,0,0,1,6.424-20.939,22.654,22.654,0,0,0-9.763,5.518,22.954,22.954,0,0,0-6.587,12.524Z"/>
            <path class="cls-2" d="M541.874,666.7a9.356,9.356,0,0,0-9.464-4.162,52.109,52.109,0,0,0,8.535-20.172,22.656,22.656,0,0,1,3.934,10.5,22.963,22.963,0,0,1-3,13.83Z"/>
          </g>
        </g>
      </g>
      <g>
        <g id="Layer_2-3" data-name="Layer 2">
          <g>
            <path class="cls-2" d="M77.928,594.062c.9-.271,3.4-1.131,6.8-4.688,3.581-3.745,5.523-7.715,7.286-12.151a105.756,105.756,0,0,0,5.658-19.717c1.907-12.144-.1-21.486-3.228-23.448a12.827,12.827,0,0,0-4.587-1.712,11.482,11.482,0,0,0-4.072.219,14.7,14.7,0,0,0-5.208,2.264,46.573,46.573,0,0,0-9.089,8.227,50.951,50.951,0,0,0-9.042,15.708c-.705,1.839-7.763,20.985,1.919,31.371a17.292,17.292,0,0,0,4.3,3.337A14.194,14.194,0,0,0,77.928,594.062Z"/>
            <path class="cls-2" d="M95.626,600.5c-.518-.788-1.875-3.05-2.2-7.962-.336-5.171.727-9.46,2.227-13.992a105.738,105.738,0,0,1,8.332-18.74c6.344-10.529,13.883-16.394,17.538-15.888a12.842,12.842,0,0,1,4.615,1.637,11.508,11.508,0,0,1,2.979,2.788,14.761,14.761,0,0,1,2.535,5.084,46.609,46.609,0,0,1,1.676,12.148,50.939,50.939,0,0,1-3.166,17.848c-.641,1.862-7.535,21.068-21.626,22.8a17.287,17.287,0,0,1-5.437-.209A14.19,14.19,0,0,1,95.626,600.5Z"/>
            <path class="cls-2" d="M45.79,563.08c3.931.613,6.338,3.9,7.135,4.985,7.194,9.815.384,26.084-1.694,31.025-3.062,7.281-5.784,13.759-12.158,15.544a14.659,14.659,0,0,1-12.706-2.8c-9.706-7.838-3.9-25.917-3.259-28.06A38.118,38.118,0,0,1,37.85,565.375C41.21,563.271,43.593,562.734,45.79,563.08Z"/>
            <path class="cls-2" d="M139.172,597.081c-3.406-2.058-7.359-1.09-8.669-.769-11.816,2.893-17.051,19.733-18.635,24.856-2.334,7.544-4.41,14.259-.674,19.726a14.663,14.663,0,0,0,11.535,6.023c12.471.237,19.64-17.344,20.525-19.4a38.147,38.147,0,0,0,.526-23.571C142.557,600.175,141.076,598.231,139.172,597.081Z"/>
            <path class="cls-2" d="M43.948,557.572a9.01,9.01,0,0,1,10.345,3.051A33.558,33.558,0,0,1,60.4,539.568a20.554,20.554,0,0,0-5.693,2.265c-7.912,4.636-10.2,13.277-10.761,15.739Z"/>
            <path class="cls-2" d="M87.442,525.417a9.354,9.354,0,0,1,9.924,2.9,52.14,52.14,0,0,1,6.425-20.939,22.657,22.657,0,0,0-9.764,5.518,22.959,22.959,0,0,0-6.586,12.524Z"/>
            <path class="cls-2" d="M144.121,594.05a9.01,9.01,0,0,0-9.885-4.316,33.562,33.562,0,0,0,8.848-20.059,20.613,20.613,0,0,1,2.905,5.4c3.083,8.64-.717,16.73-1.868,18.977Z"/>
            <path class="cls-2" d="M132.441,541.8a9.354,9.354,0,0,0-9.464-4.163,52.109,52.109,0,0,0,8.535-20.172,22.667,22.667,0,0,1,3.934,10.5,22.97,22.97,0,0,1-3,13.83Z"/>
            <path class="cls-2" d="M83.132,606.939a13.767,13.767,0,0,1,5.98,4.565,29.968,29.968,0,0,1,1.765,3.725,52.407,52.407,0,0,1,2.005,7.357,28.589,28.589,0,0,0,3.289,7.565c.847,1.381,1.39,2.542,8.28,12.793a54.978,54.978,0,0,1,4.555,7.624,47.793,47.793,0,0,1,2.077,5.069,28.553,28.553,0,0,1-.195,14.1,14.672,14.672,0,0,1-7.263,9.412,16.1,16.1,0,0,1-15.105-.622,74.115,74.115,0,0,1-14.035-9.311,44.008,44.008,0,0,0-11.548-6.752,55.346,55.346,0,0,0-13.184-2.254,55.164,55.164,0,0,1-20.49-3.163,14.321,14.321,0,0,1-7.732-19.848,28.627,28.627,0,0,1,8.906-10.923,34.691,34.691,0,0,1,3.291-1.888,36.1,36.1,0,0,1,7.348-2.722c6.694-1.789,11.651-3.456,17.159-5.324a27.649,27.649,0,0,0,6.4-3.1c2.462-1.623,3.441-2.865,6.174-4.458a26.18,26.18,0,0,1,4.813-2.186,13.754,13.754,0,0,1,7.513.347Z"/>
          </g>
        </g>
        <g id="Layer_2-4" data-name="Layer 2">
          <g>
            <path class="cls-2" d="M208.574,650.311a9.355,9.355,0,0,1,9.924,2.9,52.14,52.14,0,0,1,6.425-20.939,22.652,22.652,0,0,0-9.764,5.518,22.959,22.959,0,0,0-6.586,12.524Z"/>
            <path class="cls-2" d="M253.573,666.7a9.356,9.356,0,0,0-9.464-4.162,52.124,52.124,0,0,0,8.535-20.172,22.678,22.678,0,0,1,3.934,10.5,22.964,22.964,0,0,1-3,13.83Z"/>
          </g>
        </g>
      </g>
      <g>
        <g id="Layer_2-5" data-name="Layer 2">
          <g>
            <path class="cls-2" d="M510.381,265.812c.9-.271,3.4-1.131,6.8-4.688,3.582-3.745,5.523-7.714,7.286-12.151a105.648,105.648,0,0,0,5.658-19.716c1.907-12.145-.1-21.486-3.228-23.448a12.828,12.828,0,0,0-4.587-1.713,11.5,11.5,0,0,0-4.072.219,14.731,14.731,0,0,0-5.208,2.265,46.573,46.573,0,0,0-9.089,8.227,50.928,50.928,0,0,0-9.042,15.708c-.705,1.838-7.763,20.985,1.919,31.371a17.34,17.34,0,0,0,4.3,3.337A14.192,14.192,0,0,0,510.381,265.812Z"/>
            <path class="cls-2" d="M528.078,272.252c-.518-.789-1.875-3.051-2.195-7.962-.335-5.171.727-9.46,2.227-13.992a105.747,105.747,0,0,1,8.332-18.741c6.344-10.528,13.883-16.393,17.538-15.887a12.84,12.84,0,0,1,4.615,1.636,11.512,11.512,0,0,1,2.979,2.789,14.761,14.761,0,0,1,2.535,5.084,46.607,46.607,0,0,1,1.676,12.147,50.939,50.939,0,0,1-3.166,17.848c-.641,1.863-7.535,21.069-21.625,22.8a17.322,17.322,0,0,1-5.438-.209A14.193,14.193,0,0,1,528.078,272.252Z"/>
            <path class="cls-2" d="M478.242,234.83c3.931.614,6.338,3.9,7.136,4.986,7.193,9.814.384,26.083-1.695,31.025-3.062,7.281-5.783,13.759-12.158,15.544a14.659,14.659,0,0,1-12.7-2.8c-9.706-7.838-3.9-25.918-3.26-28.06a38.125,38.125,0,0,1,14.742-18.4C473.662,235.022,476.045,234.485,478.242,234.83Z"/>
            <path class="cls-2" d="M571.625,268.832c-3.406-2.058-7.36-1.09-8.67-.769-11.816,2.892-17.051,19.732-18.635,24.856-2.334,7.544-4.41,14.259-.673,19.726a14.662,14.662,0,0,0,11.534,6.022c12.471.238,19.64-17.344,20.526-19.4a38.148,38.148,0,0,0,.525-23.57C575.009,271.926,573.528,269.982,571.625,268.832Z"/>
            <path class="cls-2" d="M476.4,229.323a9.009,9.009,0,0,1,10.345,3.051,33.567,33.567,0,0,1,6.109-21.056,20.538,20.538,0,0,0-5.692,2.266c-7.913,4.636-10.2,13.277-10.762,15.738Z"/>
            <path class="cls-2" d="M519.894,197.168a9.357,9.357,0,0,1,9.925,2.9,52.127,52.127,0,0,1,6.424-20.94,22.656,22.656,0,0,0-9.763,5.519,22.947,22.947,0,0,0-6.587,12.524Z"/>
            <path class="cls-2" d="M576.573,265.8a9.01,9.01,0,0,0-9.885-4.317,33.553,33.553,0,0,0,8.848-20.058,20.585,20.585,0,0,1,2.906,5.4c3.082,8.64-.717,16.73-1.869,18.977Z"/>
            <path class="cls-2" d="M564.893,213.555a9.354,9.354,0,0,0-9.464-4.162,52.107,52.107,0,0,0,8.535-20.173,22.664,22.664,0,0,1,3.934,10.506,22.958,22.958,0,0,1-3,13.829Z"/>
            <path class="cls-2" d="M515.584,278.69a13.753,13.753,0,0,1,5.98,4.565,29.955,29.955,0,0,1,1.765,3.724,52.143,52.143,0,0,1,2,7.358,28.6,28.6,0,0,0,3.289,7.564c.847,1.382,1.39,2.543,8.28,12.794a54.869,54.869,0,0,1,4.555,7.623,48.028,48.028,0,0,1,2.078,5.07,28.553,28.553,0,0,1-.2,14.1,14.67,14.67,0,0,1-7.263,9.411,16.094,16.094,0,0,1-15.105-.621,74.168,74.168,0,0,1-14.035-9.312,44.032,44.032,0,0,0-11.548-6.751,55.287,55.287,0,0,0-13.184-2.254,55.167,55.167,0,0,1-20.49-3.163,14.324,14.324,0,0,1-7.732-19.848,28.63,28.63,0,0,1,8.906-10.924,35.027,35.027,0,0,1,3.291-1.887,36.126,36.126,0,0,1,7.348-2.722c6.694-1.789,11.652-3.456,17.159-5.325a27.686,27.686,0,0,0,6.4-3.1c2.462-1.624,3.441-2.865,6.175-4.458a26.145,26.145,0,0,1,4.812-2.187,13.758,13.758,0,0,1,7.514.348Z"/>
          </g>
        </g>
        <g id="Layer_2-6" data-name="Layer 2">
          <g>
            <path class="cls-2" d="M599.374,359.724c3.931.614,6.338,3.9,7.135,4.986,7.194,9.814.384,26.083-1.694,31.025-3.062,7.281-5.784,13.759-12.158,15.544a14.662,14.662,0,0,1-12.706-2.8c-9.706-7.838-3.9-25.918-3.259-28.06a38.118,38.118,0,0,1,14.742-18.4C594.794,359.915,597.177,359.379,599.374,359.724Z"/>
            <path class="cls-2" d="M636.716,403.583a13.769,13.769,0,0,1,5.98,4.566,29.955,29.955,0,0,1,1.765,3.724,52.416,52.416,0,0,1,2,7.358,28.6,28.6,0,0,0,3.289,7.564c.847,1.382,1.389,2.543,8.28,12.794a54.967,54.967,0,0,1,4.555,7.623,47.809,47.809,0,0,1,2.077,5.07,28.553,28.553,0,0,1-.2,14.1,14.67,14.67,0,0,1-7.263,9.411,16.094,16.094,0,0,1-15.1-.621,74.168,74.168,0,0,1-14.035-9.312,44.032,44.032,0,0,0-11.548-6.751,55.3,55.3,0,0,0-13.184-2.254,55.164,55.164,0,0,1-20.49-3.163,14.321,14.321,0,0,1-7.732-19.848,28.63,28.63,0,0,1,8.906-10.924,34.9,34.9,0,0,1,3.291-1.887,36.1,36.1,0,0,1,7.348-2.722c6.694-1.789,11.651-3.456,17.159-5.325a27.706,27.706,0,0,0,6.4-3.1c2.462-1.624,3.441-2.865,6.174-4.458a26.184,26.184,0,0,1,4.813-2.187,13.754,13.754,0,0,1,7.513.348Z"/>
          </g>
        </g>
      </g>
      <g>
        <g id="Layer_2-7" data-name="Layer 2">
          <g>
            <path class="cls-2" d="M222.079,265.812c.9-.271,3.4-1.131,6.8-4.688,3.581-3.745,5.522-7.714,7.286-12.151a105.721,105.721,0,0,0,5.657-19.716c1.907-12.145-.1-21.486-3.227-23.448a12.835,12.835,0,0,0-4.587-1.713,11.5,11.5,0,0,0-4.072.219,14.727,14.727,0,0,0-5.209,2.265,46.6,46.6,0,0,0-9.089,8.227,50.948,50.948,0,0,0-9.042,15.708c-.7,1.838-7.763,20.985,1.92,31.371a17.321,17.321,0,0,0,4.3,3.337A14.188,14.188,0,0,0,222.079,265.812Z"/>
            <path class="cls-2" d="M239.777,272.252c-.518-.789-1.876-3.051-2.195-7.962-.336-5.171.727-9.46,2.227-13.992a105.675,105.675,0,0,1,8.332-18.741c6.343-10.528,13.883-16.393,17.537-15.887a12.845,12.845,0,0,1,4.616,1.636,11.508,11.508,0,0,1,2.978,2.789,14.746,14.746,0,0,1,2.536,5.084,46.65,46.65,0,0,1,1.676,12.147,50.939,50.939,0,0,1-3.166,17.848c-.641,1.863-7.535,21.069-21.626,22.8a17.324,17.324,0,0,1-5.438-.209A14.192,14.192,0,0,1,239.777,272.252Z"/>
            <path class="cls-2" d="M189.94,234.83c3.932.614,6.339,3.9,7.136,4.986,7.194,9.814.384,26.083-1.694,31.025-3.062,7.281-5.784,13.759-12.158,15.544a14.661,14.661,0,0,1-12.706-2.8c-9.706-7.838-3.9-25.918-3.259-28.06A38.12,38.12,0,0,1,182,237.125C185.36,235.022,187.743,234.485,189.94,234.83Z"/>
            <path class="cls-2" d="M283.323,268.832c-3.406-2.058-7.359-1.09-8.67-.769-11.815,2.892-17.05,19.732-18.635,24.856-2.333,7.544-4.41,14.259-.673,19.726a14.662,14.662,0,0,0,11.535,6.022c12.471.238,19.639-17.344,20.525-19.4a38.139,38.139,0,0,0,.525-23.57C286.708,271.926,285.227,269.982,283.323,268.832Z"/>
            <path class="cls-2" d="M188.1,229.323a9.01,9.01,0,0,1,10.346,3.051,33.561,33.561,0,0,1,6.109-21.056,20.556,20.556,0,0,0-5.693,2.266c-7.913,4.636-10.2,13.277-10.762,15.738Z"/>
            <path class="cls-2" d="M231.593,197.168a9.355,9.355,0,0,1,9.924,2.9,52.144,52.144,0,0,1,6.425-20.94,22.654,22.654,0,0,0-9.764,5.519,22.952,22.952,0,0,0-6.586,12.524Z"/>
            <path class="cls-2" d="M288.272,265.8a9.011,9.011,0,0,0-9.885-4.317,33.559,33.559,0,0,0,8.848-20.058,20.581,20.581,0,0,1,2.9,5.4c3.083,8.64-.717,16.73-1.868,18.977Z"/>
            <path class="cls-2" d="M276.592,213.555a9.355,9.355,0,0,0-9.464-4.162,52.122,52.122,0,0,0,8.535-20.173,22.686,22.686,0,0,1,3.934,10.506,22.959,22.959,0,0,1-3,13.829Z"/>
            <path class="cls-2" d="M227.283,278.69a13.759,13.759,0,0,1,5.98,4.565,30.243,30.243,0,0,1,1.765,3.724,52.416,52.416,0,0,1,2,7.358,28.6,28.6,0,0,0,3.289,7.564c.847,1.382,1.389,2.543,8.28,12.794a55.066,55.066,0,0,1,4.555,7.623,48.021,48.021,0,0,1,2.077,5.07,28.541,28.541,0,0,1-.2,14.1,14.665,14.665,0,0,1-7.262,9.411,16.1,16.1,0,0,1-15.106-.621,74.161,74.161,0,0,1-14.034-9.312,44.064,44.064,0,0,0-11.548-6.751,55.3,55.3,0,0,0-13.185-2.254,55.162,55.162,0,0,1-20.489-3.163,14.323,14.323,0,0,1-7.733-19.848,28.633,28.633,0,0,1,8.907-10.924,35.011,35.011,0,0,1,3.29-1.887,36.134,36.134,0,0,1,7.349-2.722c6.694-1.789,11.651-3.456,17.158-5.325a27.713,27.713,0,0,0,6.4-3.1c2.462-1.624,3.441-2.865,6.174-4.458a26.154,26.154,0,0,1,4.813-2.187,13.754,13.754,0,0,1,7.513.348Z"/>
          </g>
        </g>
        <g id="Layer_2-8" data-name="Layer 2">
          <g>
            <path class="cls-2" d="M343.211,390.706c.9-.271,3.4-1.131,6.8-4.688,3.582-3.745,5.523-7.714,7.287-12.151a105.721,105.721,0,0,0,5.657-19.716c1.907-12.145-.1-21.486-3.227-23.448a12.835,12.835,0,0,0-4.587-1.713,11.5,11.5,0,0,0-4.072.219,14.727,14.727,0,0,0-5.209,2.265,46.573,46.573,0,0,0-9.089,8.227,50.948,50.948,0,0,0-9.042,15.708c-.7,1.838-7.763,20.985,1.92,31.371a17.3,17.3,0,0,0,4.3,3.337A14.187,14.187,0,0,0,343.211,390.706Z"/>
            <path class="cls-2" d="M360.908,397.146c-.517-.789-1.875-3.051-2.194-7.962-.336-5.171.726-9.46,2.227-13.993a105.7,105.7,0,0,1,8.332-18.74c6.343-10.528,13.882-16.393,17.537-15.887a12.852,12.852,0,0,1,4.616,1.636,11.524,11.524,0,0,1,2.978,2.789,14.726,14.726,0,0,1,2.535,5.084,46.651,46.651,0,0,1,1.677,12.147,50.962,50.962,0,0,1-3.166,17.848c-.641,1.863-7.536,21.069-21.626,22.8a17.323,17.323,0,0,1-5.438-.209A14.193,14.193,0,0,1,360.908,397.146Z"/>
            <path class="cls-2" d="M311.072,359.724c3.931.614,6.338,3.9,7.136,4.986,7.193,9.814.384,26.083-1.694,31.025-3.063,7.281-5.784,13.759-12.158,15.544a14.66,14.66,0,0,1-12.706-2.8c-9.706-7.838-3.9-25.918-3.259-28.06a38.12,38.12,0,0,1,14.741-18.4C306.492,359.915,308.875,359.379,311.072,359.724Z"/>
            <path class="cls-2" d="M404.455,393.726c-3.406-2.058-7.36-1.09-8.67-.769-11.815,2.892-17.05,19.732-18.635,24.856-2.333,7.544-4.41,14.259-.673,19.726a14.662,14.662,0,0,0,11.534,6.022c12.472.238,19.64-17.344,20.526-19.4a38.139,38.139,0,0,0,.525-23.57C407.839,396.82,406.359,394.876,404.455,393.726Z"/>
            <path class="cls-2" d="M309.23,354.217a9.01,9.01,0,0,1,10.346,3.051,33.561,33.561,0,0,1,6.109-21.056,20.556,20.556,0,0,0-5.693,2.266c-7.913,4.636-10.2,13.276-10.762,15.738Z"/>
            <path class="cls-2" d="M352.725,322.062a9.355,9.355,0,0,1,9.924,2.9,52.144,52.144,0,0,1,6.425-20.94,22.654,22.654,0,0,0-9.764,5.519,22.96,22.96,0,0,0-6.587,12.524Z"/>
            <path class="cls-2" d="M409.4,390.694a9.011,9.011,0,0,0-9.885-4.316,33.554,33.554,0,0,0,8.849-20.058,20.581,20.581,0,0,1,2.9,5.4c3.083,8.64-.717,16.73-1.869,18.977Z"/>
            <path class="cls-2" d="M397.724,338.449a9.355,9.355,0,0,0-9.464-4.162,52.137,52.137,0,0,0,8.535-20.173,22.686,22.686,0,0,1,3.934,10.506,22.959,22.959,0,0,1-3,13.829Z"/>
            <path class="cls-2" d="M348.415,403.583a13.766,13.766,0,0,1,5.979,4.566,30.1,30.1,0,0,1,1.766,3.724,52.416,52.416,0,0,1,2,7.358,28.532,28.532,0,0,0,3.289,7.564c.847,1.382,1.389,2.543,8.28,12.794a54.961,54.961,0,0,1,4.554,7.623,47.816,47.816,0,0,1,2.078,5.07,28.541,28.541,0,0,1-.2,14.1,14.67,14.67,0,0,1-7.263,9.411,16.094,16.094,0,0,1-15.1-.621,74.2,74.2,0,0,1-14.035-9.312A44.042,44.042,0,0,0,328.22,459.1a55.3,55.3,0,0,0-13.185-2.254,55.167,55.167,0,0,1-20.49-3.163,14.324,14.324,0,0,1-7.732-19.848,28.633,28.633,0,0,1,8.907-10.924,34.884,34.884,0,0,1,3.29-1.887,36.134,36.134,0,0,1,7.349-2.722c6.693-1.789,11.651-3.456,17.158-5.325a27.686,27.686,0,0,0,6.4-3.1c2.463-1.624,3.442-2.865,6.175-4.458a26.154,26.154,0,0,1,4.813-2.187,13.755,13.755,0,0,1,7.513.348Z"/>
          </g>
        </g>
      </g>
      <g>
        <g id="Layer_2-9" data-name="Layer 2">
          <g>
            <path class="cls-2" d="M-4.978,268.832c-3.406-2.058-7.36-1.09-8.67-.769C-25.464,270.955-30.7,287.8-32.283,292.919c-2.334,7.544-4.41,14.259-.673,19.726a14.662,14.662,0,0,0,11.534,6.022c12.471.238,19.64-17.344,20.526-19.4A38.148,38.148,0,0,0-.371,275.7C-1.594,271.926-3.075,269.982-4.978,268.832Z"/>
            <path class="cls-2" d="M-.03,265.8a9.01,9.01,0,0,0-9.885-4.317,33.547,33.547,0,0,0,8.848-20.058,20.585,20.585,0,0,1,2.906,5.4c3.082,8.64-.717,16.73-1.869,18.977Z"/>
          </g>
        </g>
        <g id="Layer_2-10" data-name="Layer 2">
          <g>
            <path class="cls-2" d="M54.909,390.706c.9-.271,3.4-1.131,6.8-4.688,3.581-3.745,5.523-7.714,7.286-12.151a105.724,105.724,0,0,0,5.658-19.716c1.907-12.145-.1-21.486-3.228-23.448a12.828,12.828,0,0,0-4.587-1.713,11.5,11.5,0,0,0-4.072.219,14.723,14.723,0,0,0-5.208,2.265,46.573,46.573,0,0,0-9.089,8.227,50.928,50.928,0,0,0-9.042,15.708c-.7,1.838-7.763,20.985,1.919,31.371a17.34,17.34,0,0,0,4.3,3.337A14.189,14.189,0,0,0,54.909,390.706Z"/>
            <path class="cls-2" d="M72.607,397.146c-.518-.789-1.875-3.051-2.195-7.962-.336-5.171.727-9.46,2.227-13.993a105.77,105.77,0,0,1,8.332-18.74c6.344-10.528,13.883-16.393,17.538-15.887a12.84,12.84,0,0,1,4.615,1.636,11.512,11.512,0,0,1,2.979,2.789,14.761,14.761,0,0,1,2.535,5.084,46.607,46.607,0,0,1,1.676,12.147,50.939,50.939,0,0,1-3.166,17.848c-.641,1.863-7.535,21.069-21.626,22.8a17.317,17.317,0,0,1-5.437-.209A14.19,14.19,0,0,1,72.607,397.146Z"/>
            <path class="cls-2" d="M22.771,359.724c3.931.614,6.338,3.9,7.135,4.986,7.194,9.814.384,26.083-1.694,31.025-3.062,7.281-5.784,13.759-12.158,15.544a14.662,14.662,0,0,1-12.706-2.8c-9.706-7.838-3.9-25.918-3.259-28.06a38.118,38.118,0,0,1,14.742-18.4C18.191,359.915,20.574,359.379,22.771,359.724Z"/>
            <path class="cls-2" d="M116.153,393.726c-3.406-2.058-7.359-1.09-8.669-.769-11.816,2.892-17.051,19.732-18.635,24.856-2.334,7.544-4.41,14.259-.674,19.726a14.662,14.662,0,0,0,11.535,6.022c12.471.238,19.64-17.344,20.525-19.4a38.144,38.144,0,0,0,.526-23.57C119.538,396.82,118.057,394.876,116.153,393.726Z"/>
            <path class="cls-2" d="M20.929,354.217a9.009,9.009,0,0,1,10.345,3.051,33.561,33.561,0,0,1,6.109-21.056,20.556,20.556,0,0,0-5.693,2.266c-7.912,4.636-10.2,13.276-10.761,15.738Z"/>
            <path class="cls-2" d="M64.423,322.062a9.354,9.354,0,0,1,9.924,2.9,52.144,52.144,0,0,1,6.425-20.94,22.659,22.659,0,0,0-9.764,5.519,22.952,22.952,0,0,0-6.586,12.524Z"/>
            <path class="cls-2" d="M121.1,390.694a9.011,9.011,0,0,0-9.885-4.316,33.559,33.559,0,0,0,8.848-20.058,20.581,20.581,0,0,1,2.905,5.4c3.083,8.64-.717,16.73-1.868,18.977Z"/>
            <path class="cls-2" d="M109.422,338.449a9.354,9.354,0,0,0-9.464-4.162,52.107,52.107,0,0,0,8.535-20.173,22.675,22.675,0,0,1,3.934,10.506,22.966,22.966,0,0,1-3,13.829Z"/>
            <path class="cls-2" d="M60.113,403.583a13.769,13.769,0,0,1,5.98,4.566,29.955,29.955,0,0,1,1.765,3.724,52.416,52.416,0,0,1,2,7.358,28.6,28.6,0,0,0,3.289,7.564c.847,1.382,1.39,2.543,8.28,12.794a54.967,54.967,0,0,1,4.555,7.623,47.809,47.809,0,0,1,2.077,5.07,28.553,28.553,0,0,1-.195,14.1,14.67,14.67,0,0,1-7.263,9.411,16.094,16.094,0,0,1-15.1-.621,74.168,74.168,0,0,1-14.035-9.312A44.032,44.032,0,0,0,39.918,459.1a55.3,55.3,0,0,0-13.184-2.254,55.164,55.164,0,0,1-20.49-3.163,14.214,14.214,0,0,1-9.258-12.922,14.656,14.656,0,0,1,1.526-6.926,28.63,28.63,0,0,1,8.906-10.924,34.9,34.9,0,0,1,3.291-1.887,36.1,36.1,0,0,1,7.348-2.722c6.694-1.789,11.651-3.456,17.159-5.325a27.686,27.686,0,0,0,6.4-3.1c2.462-1.624,3.441-2.865,6.174-4.458a26.184,26.184,0,0,1,4.813-2.187,13.754,13.754,0,0,1,7.513.348Z"/>
          </g>
        </g>
      </g>
      <g>
        <g id="Layer_2-11" data-name="Layer 2">
          <path class="cls-2" d="M371.434-49.56a13.771,13.771,0,0,1,5.979,4.565,30.117,30.117,0,0,1,1.766,3.725,52.407,52.407,0,0,1,2.005,7.357,28.524,28.524,0,0,0,3.289,7.565c.847,1.382,1.389,2.543,8.28,12.793a55.03,55.03,0,0,1,4.554,7.624,47.73,47.73,0,0,1,2.078,5.07,28.537,28.537,0,0,1-.2,14.094,14.672,14.672,0,0,1-7.263,9.412,16.1,16.1,0,0,1-15.1-.621,74.2,74.2,0,0,1-14.035-9.312A44.046,44.046,0,0,0,351.239,5.96a55.352,55.352,0,0,0-13.185-2.253A55.188,55.188,0,0,1,317.564.544a14.611,14.611,0,0,1-8.215-7.968,14.506,14.506,0,0,1-1.042-4.955,14.651,14.651,0,0,1,1.525-6.925,28.633,28.633,0,0,1,8.907-10.924,34.675,34.675,0,0,1,3.29-1.888,36.194,36.194,0,0,1,7.349-2.722c6.693-1.788,11.651-3.456,17.158-5.324a27.686,27.686,0,0,0,6.4-3.1c2.463-1.624,3.442-2.865,6.175-4.458a26.088,26.088,0,0,1,4.813-2.187,13.755,13.755,0,0,1,7.513.348Z"/>
        </g>
        <g id="Layer_2-12" data-name="Layer 2">
          <g>
            <path class="cls-2" d="M487.362,62.457c.9-.271,3.4-1.131,6.8-4.688,3.582-3.745,5.523-7.714,7.286-12.151A105.658,105.658,0,0,0,507.1,25.9c1.907-12.144-.1-21.486-3.228-23.448A12.827,12.827,0,0,0,499.288.741a11.5,11.5,0,0,0-4.072.219,14.746,14.746,0,0,0-5.208,2.264,46.578,46.578,0,0,0-9.089,8.228,50.928,50.928,0,0,0-9.042,15.708c-.7,1.838-7.763,20.984,1.919,31.371a17.312,17.312,0,0,0,4.3,3.336A14.183,14.183,0,0,0,487.362,62.457Z"/>
            <path class="cls-2" d="M505.059,68.9c-.518-.789-1.875-3.051-2.2-7.963-.335-5.17.727-9.46,2.227-13.992a105.77,105.77,0,0,1,8.332-18.74c6.344-10.529,13.883-16.394,17.538-15.888a12.842,12.842,0,0,1,4.615,1.637,11.525,11.525,0,0,1,2.979,2.788,14.766,14.766,0,0,1,2.535,5.085,46.6,46.6,0,0,1,1.676,12.147A50.939,50.939,0,0,1,539.6,51.819c-.641,1.862-7.535,21.068-21.625,22.8a17.292,17.292,0,0,1-5.438-.209A14.19,14.19,0,0,1,505.059,68.9Z"/>
            <path class="cls-2" d="M455.223,31.475c3.931.613,6.338,3.9,7.136,4.986,7.193,9.814.384,26.083-1.695,31.024-3.062,7.282-5.783,13.76-12.158,15.544a14.655,14.655,0,0,1-12.7-2.8c-9.706-7.839-3.9-25.918-3.26-28.061A38.125,38.125,0,0,1,447.283,33.77C450.643,31.666,453.026,31.129,455.223,31.475Z"/>
            <path class="cls-2" d="M548.606,65.476c-3.406-2.057-7.36-1.09-8.67-.769C528.12,67.6,522.885,84.44,521.3,89.563c-2.334,7.544-4.41,14.259-.673,19.726a14.66,14.66,0,0,0,11.534,6.023c12.471.238,19.64-17.344,20.526-19.4a38.15,38.15,0,0,0,.525-23.571C551.99,68.57,550.509,66.627,548.606,65.476Z"/>
            <path class="cls-2" d="M453.381,25.967a9.01,9.01,0,0,1,10.345,3.051,33.564,33.564,0,0,1,6.109-21.055,20.535,20.535,0,0,0-5.692,2.265c-7.913,4.637-10.2,13.277-10.762,15.739Z"/>
            <path class="cls-2" d="M553.554,62.445a9.011,9.011,0,0,0-9.885-4.316,33.556,33.556,0,0,0,8.848-20.059,20.606,20.606,0,0,1,2.906,5.4c3.082,8.64-.717,16.73-1.869,18.977Z"/>
            <path class="cls-2" d="M541.874,10.2a9.354,9.354,0,0,0-9.464-4.163,52.109,52.109,0,0,0,8.535-20.172A22.66,22.66,0,0,1,544.879-3.63a22.961,22.961,0,0,1-3,13.83Z"/>
            <path class="cls-2" d="M492.565,75.334a13.768,13.768,0,0,1,5.98,4.565,29.968,29.968,0,0,1,1.765,3.725,52.27,52.27,0,0,1,2,7.357,28.589,28.589,0,0,0,3.289,7.565c.847,1.382,1.39,2.543,8.28,12.793a54.88,54.88,0,0,1,4.555,7.624,48.011,48.011,0,0,1,2.078,5.069,28.553,28.553,0,0,1-.2,14.1,14.672,14.672,0,0,1-7.263,9.412,16.1,16.1,0,0,1-15.105-.621,74.168,74.168,0,0,1-14.035-9.312,44.008,44.008,0,0,0-11.548-6.752,55.336,55.336,0,0,0-13.184-2.253,55.188,55.188,0,0,1-20.49-3.163,14.324,14.324,0,0,1-7.732-19.848,28.63,28.63,0,0,1,8.906-10.924,34.816,34.816,0,0,1,3.291-1.888,36.185,36.185,0,0,1,7.348-2.722c6.694-1.788,11.652-3.456,17.159-5.324a27.686,27.686,0,0,0,6.4-3.1c2.462-1.624,3.441-2.865,6.175-4.458a26.079,26.079,0,0,1,4.812-2.187,13.748,13.748,0,0,1,7.514.348Z"/>
          </g>
        </g>
      </g>
      <g>
        <g id="Layer_2-13" data-name="Layer 2">
          <path class="cls-2" d="M83.132-49.56a13.774,13.774,0,0,1,5.98,4.565,29.968,29.968,0,0,1,1.765,3.725,52.407,52.407,0,0,1,2.005,7.357,28.589,28.589,0,0,0,3.289,7.565c.847,1.382,1.39,2.543,8.28,12.793a55.037,55.037,0,0,1,4.555,7.624,47.723,47.723,0,0,1,2.077,5.07,28.549,28.549,0,0,1-.195,14.094,14.672,14.672,0,0,1-7.263,9.412,16.1,16.1,0,0,1-15.105-.621,74.168,74.168,0,0,1-14.035-9.312A44.035,44.035,0,0,0,62.937,5.96,55.344,55.344,0,0,0,49.753,3.707,55.185,55.185,0,0,1,29.263.544a14.613,14.613,0,0,1-8.216-7.968,14.506,14.506,0,0,1-1.042-4.955A14.652,14.652,0,0,1,21.531-19.3a28.63,28.63,0,0,1,8.906-10.924,34.691,34.691,0,0,1,3.291-1.888,36.163,36.163,0,0,1,7.348-2.722c6.694-1.788,11.651-3.456,17.159-5.324a27.686,27.686,0,0,0,6.4-3.1c2.462-1.624,3.441-2.865,6.174-4.458a26.118,26.118,0,0,1,4.813-2.187,13.754,13.754,0,0,1,7.513.348Z"/>
        </g>
        <g id="Layer_2-14" data-name="Layer 2">
          <g>
            <path class="cls-2" d="M199.06,62.457c.9-.271,3.4-1.131,6.8-4.688,3.581-3.745,5.522-7.714,7.286-12.151A105.731,105.731,0,0,0,218.8,25.9c1.907-12.144-.1-21.486-3.227-23.448A12.834,12.834,0,0,0,210.987.741a11.5,11.5,0,0,0-4.072.219,14.743,14.743,0,0,0-5.209,2.264,46.607,46.607,0,0,0-9.089,8.228,50.948,50.948,0,0,0-9.042,15.708c-.7,1.838-7.763,20.984,1.92,31.371a17.294,17.294,0,0,0,4.3,3.336A14.18,14.18,0,0,0,199.06,62.457Z"/>
            <path class="cls-2" d="M216.758,68.9c-.518-.789-1.876-3.051-2.2-7.963-.336-5.17.727-9.46,2.227-13.992a105.7,105.7,0,0,1,8.332-18.74c6.343-10.529,13.883-16.394,17.537-15.888a12.847,12.847,0,0,1,4.616,1.637,11.521,11.521,0,0,1,2.978,2.788,14.75,14.75,0,0,1,2.536,5.085,46.644,46.644,0,0,1,1.676,12.147A50.939,50.939,0,0,1,251.3,51.819c-.641,1.862-7.535,21.068-21.626,22.8a17.3,17.3,0,0,1-5.438-.209A14.189,14.189,0,0,1,216.758,68.9Z"/>
            <path class="cls-2" d="M166.921,31.475c3.932.613,6.339,3.9,7.136,4.986,7.194,9.814.384,26.083-1.694,31.024-3.062,7.282-5.784,13.76-12.158,15.544a14.657,14.657,0,0,1-12.706-2.8c-9.706-7.839-3.9-25.918-3.259-28.061A38.119,38.119,0,0,1,158.981,33.77C162.341,31.666,164.724,31.129,166.921,31.475Z"/>
            <path class="cls-2" d="M260.3,65.476c-3.406-2.057-7.36-1.09-8.67-.769C239.819,67.6,234.584,84.44,233,89.563c-2.333,7.544-4.41,14.259-.673,19.726a14.66,14.66,0,0,0,11.535,6.023c12.471.238,19.639-17.344,20.525-19.4a38.142,38.142,0,0,0,.525-23.571C263.689,68.57,262.208,66.627,260.3,65.476Z"/>
            <path class="cls-2" d="M165.079,25.967a9.011,9.011,0,0,1,10.346,3.051,33.558,33.558,0,0,1,6.109-21.055,20.554,20.554,0,0,0-5.693,2.265c-7.913,4.637-10.2,13.277-10.762,15.739Z"/>
            <path class="cls-2" d="M265.253,62.445a9.012,9.012,0,0,0-9.885-4.316,33.562,33.562,0,0,0,8.848-20.059,20.6,20.6,0,0,1,2.9,5.4c3.083,8.64-.717,16.73-1.868,18.977Z"/>
            <path class="cls-2" d="M253.573,10.2a9.355,9.355,0,0,0-9.464-4.163,52.124,52.124,0,0,0,8.535-20.172A22.682,22.682,0,0,1,256.578-3.63a22.962,22.962,0,0,1-3,13.83Z"/>
            <path class="cls-2" d="M204.264,75.334a13.774,13.774,0,0,1,5.98,4.565,30.256,30.256,0,0,1,1.765,3.725,52.407,52.407,0,0,1,2.005,7.357,28.589,28.589,0,0,0,3.289,7.565c.847,1.382,1.389,2.543,8.28,12.793a55.076,55.076,0,0,1,4.555,7.624,48,48,0,0,1,2.077,5.069,28.541,28.541,0,0,1-.2,14.1,14.67,14.67,0,0,1-7.262,9.412,16.1,16.1,0,0,1-15.106-.621,74.161,74.161,0,0,1-14.034-9.312,44.04,44.04,0,0,0-11.548-6.752,55.352,55.352,0,0,0-13.185-2.253,55.183,55.183,0,0,1-20.489-3.163,14.323,14.323,0,0,1-7.733-19.848,28.633,28.633,0,0,1,8.907-10.924,34.8,34.8,0,0,1,3.29-1.888,36.194,36.194,0,0,1,7.349-2.722c6.693-1.788,11.651-3.456,17.158-5.324a27.713,27.713,0,0,0,6.4-3.1c2.462-1.624,3.441-2.865,6.174-4.458a26.088,26.088,0,0,1,4.813-2.187,13.745,13.745,0,0,1,7.513.348Z"/>
          </g>
        </g>
      </g>
    </pattern>
  </defs>
  <g id="Layer_2-15" data-name="Layer 2">
    <rect class="cls-3" width="1732" height="990"/>
  </g>
  <g id="Layer_1" data-name="Layer 1">
    <rect class="cls-4" width="1732" height="990"/>
  </g>
</svg>
