<svg id="Layer_1" data-name="Layer 1" xmlns="http://www.w3.org/2000/svg" xmlns:xlink="http://www.w3.org/1999/xlink" width="1904" height="990" viewBox="0 0 1904 990">
  <defs>
    <style>
      .cls-1 {
        fill: none;
      }

      .cls-2 {
        fill: #f2f2f2;
        stroke: #e6e6e6;
        stroke-miterlimit: 10;
        stroke-width: 3px;
      }

      .cls-3 {
        fill: url(#New_Pattern);
      }
    </style>
    <pattern id="New_Pattern" data-name="New Pattern" width="582.603" height="664.255" patternUnits="userSpaceOnUse" viewBox="0 0 582.603 664.255">
      <rect class="cls-1" width="582.603" height="664.255"/>
      <g>
        <g id="Layer_2" data-name="Layer 2">
          <g>
            <path class="cls-2" d="M370.73,602.257c.9-.271,3.4-1.132,6.8-4.688,3.582-3.745,5.523-7.715,7.287-12.152a105.721,105.721,0,0,0,5.657-19.716c1.907-12.144-.1-21.486-3.227-23.448a12.834,12.834,0,0,0-4.587-1.712,11.479,11.479,0,0,0-4.072.219,14.707,14.707,0,0,0-5.209,2.264,46.6,46.6,0,0,0-9.089,8.227,50.959,50.959,0,0,0-9.042,15.708c-.7,1.838-7.763,20.985,1.92,31.371a17.256,17.256,0,0,0,4.3,3.337A14.193,14.193,0,0,0,370.73,602.257Z"/>
            <path class="cls-2" d="M388.428,608.7c-.518-.788-1.876-3.05-2.195-7.962-.336-5.171.727-9.46,2.227-13.992A105.665,105.665,0,0,1,396.792,568c6.343-10.529,13.883-16.394,17.537-15.888a12.845,12.845,0,0,1,4.616,1.636,11.525,11.525,0,0,1,2.978,2.789,14.726,14.726,0,0,1,2.535,5.084,46.61,46.61,0,0,1,1.677,12.148,50.97,50.97,0,0,1-3.166,17.848c-.641,1.862-7.535,21.068-21.626,22.8a17.3,17.3,0,0,1-5.438-.209A14.192,14.192,0,0,1,388.428,608.7Z"/>
            <path class="cls-2" d="M338.591,571.275c3.932.613,6.339,3.9,7.136,4.985,7.194,9.814.384,26.084-1.694,31.025-3.063,7.281-5.784,13.759-12.158,15.544a14.658,14.658,0,0,1-12.706-2.8c-9.706-7.838-3.9-25.917-3.259-28.06a38.119,38.119,0,0,1,14.741-18.395C334.011,571.466,336.394,570.929,338.591,571.275Z"/>
            <path class="cls-2" d="M431.974,605.276c-3.406-2.058-7.36-1.09-8.67-.769-11.815,2.892-17.05,19.733-18.635,24.856-2.333,7.544-4.41,14.259-.673,19.726a14.663,14.663,0,0,0,11.534,6.023c12.472.237,19.64-17.345,20.526-19.4a38.143,38.143,0,0,0,.525-23.571C435.359,608.37,433.878,606.426,431.974,605.276Z"/>
            <path class="cls-2" d="M336.749,565.767a9.011,9.011,0,0,1,10.346,3.051,33.558,33.558,0,0,1,6.109-21.055,20.554,20.554,0,0,0-5.693,2.265c-7.913,4.636-10.2,13.277-10.762,15.739Z"/>
            <path class="cls-2" d="M380.244,533.612a9.355,9.355,0,0,1,9.924,2.9,52.135,52.135,0,0,1,6.425-20.939,22.652,22.652,0,0,0-9.764,5.518,22.967,22.967,0,0,0-6.587,12.524Z"/>
            <path class="cls-2" d="M436.923,602.245a9.01,9.01,0,0,0-9.885-4.316,33.562,33.562,0,0,0,8.848-20.059,20.613,20.613,0,0,1,2.9,5.4c3.083,8.64-.717,16.73-1.868,18.977Z"/>
            <path class="cls-2" d="M425.243,550a9.356,9.356,0,0,0-9.464-4.162,52.124,52.124,0,0,0,8.535-20.172,22.678,22.678,0,0,1,3.934,10.5,22.959,22.959,0,0,1-3,13.829Z"/>
            <path class="cls-2" d="M375.934,615.134a13.758,13.758,0,0,1,5.979,4.565,30.173,30.173,0,0,1,1.766,3.724,52.453,52.453,0,0,1,2.005,7.358,28.589,28.589,0,0,0,3.289,7.565c.847,1.381,1.389,2.542,8.28,12.793a55.076,55.076,0,0,1,4.555,7.624,47.918,47.918,0,0,1,2.077,5.069,28.541,28.541,0,0,1-.2,14.1,14.673,14.673,0,0,1-7.262,9.412,16.1,16.1,0,0,1-15.106-.622,74.243,74.243,0,0,1-14.035-9.311,44.018,44.018,0,0,0-11.547-6.752,55.3,55.3,0,0,0-13.185-2.254,55.159,55.159,0,0,1-20.489-3.163,14.323,14.323,0,0,1-7.733-19.848,28.622,28.622,0,0,1,8.907-10.923,34.8,34.8,0,0,1,3.29-1.888,36.134,36.134,0,0,1,7.349-2.722c6.693-1.789,11.651-3.456,17.158-5.324a27.676,27.676,0,0,0,6.4-3.1c2.462-1.623,3.441-2.865,6.174-4.458a26.22,26.22,0,0,1,4.813-2.187,13.764,13.764,0,0,1,7.513.348Z"/>
          </g>
        </g>
        <g id="Layer_2-2" data-name="Layer 2">
          <g>
            <path class="cls-2" d="M491.862,727.151c.9-.272,3.4-1.132,6.8-4.688,3.582-3.746,5.523-7.715,7.287-12.152A105.721,105.721,0,0,0,511.6,690.6c1.907-12.144-.1-21.486-3.228-23.448a12.83,12.83,0,0,0-4.586-1.713,11.51,11.51,0,0,0-4.073.22,14.71,14.71,0,0,0-5.208,2.264,46.573,46.573,0,0,0-9.089,8.227,50.959,50.959,0,0,0-9.042,15.708c-.7,1.838-7.763,20.985,1.92,31.371a17.269,17.269,0,0,0,4.3,3.337A14.2,14.2,0,0,0,491.862,727.151Z"/>
            <path class="cls-2" d="M501.376,658.506a9.355,9.355,0,0,1,9.924,2.9,52.135,52.135,0,0,1,6.425-20.939,22.641,22.641,0,0,0-9.764,5.518,22.967,22.967,0,0,0-6.587,12.524Z"/>
            <path class="cls-2" d="M546.375,674.893a9.356,9.356,0,0,0-9.464-4.162,52.122,52.122,0,0,0,8.534-20.172,22.668,22.668,0,0,1,3.935,10.5,22.959,22.959,0,0,1-3,13.829Z"/>
          </g>
        </g>
      </g>
      <g>
        <g id="Layer_2-3" data-name="Layer 2">
          <g>
            <path class="cls-2" d="M79.429,602.257c.9-.271,3.4-1.132,6.8-4.688,3.582-3.745,5.523-7.715,7.286-12.152A105.648,105.648,0,0,0,99.17,565.7c1.907-12.144-.1-21.486-3.228-23.448a12.827,12.827,0,0,0-4.587-1.712,11.482,11.482,0,0,0-4.072.219,14.71,14.71,0,0,0-5.208,2.264,46.573,46.573,0,0,0-9.089,8.227,50.939,50.939,0,0,0-9.042,15.708c-.705,1.838-7.763,20.985,1.919,31.371a17.292,17.292,0,0,0,4.3,3.337A14.2,14.2,0,0,0,79.429,602.257Z"/>
            <path class="cls-2" d="M97.126,608.7c-.518-.788-1.875-3.05-2.2-7.962-.335-5.171.727-9.46,2.227-13.992A105.738,105.738,0,0,1,105.49,568c6.344-10.529,13.883-16.394,17.538-15.888a12.84,12.84,0,0,1,4.615,1.636,11.529,11.529,0,0,1,2.979,2.789,14.761,14.761,0,0,1,2.535,5.084,46.609,46.609,0,0,1,1.676,12.148,50.947,50.947,0,0,1-3.166,17.848c-.641,1.862-7.535,21.068-21.625,22.8a17.292,17.292,0,0,1-5.438-.209A14.193,14.193,0,0,1,97.126,608.7Z"/>
            <path class="cls-2" d="M47.29,571.275c3.931.613,6.338,3.9,7.136,4.985,7.193,9.814.384,26.084-1.7,31.025-3.062,7.281-5.783,13.759-12.158,15.544a14.656,14.656,0,0,1-12.705-2.8c-9.706-7.838-3.9-25.917-3.26-28.06A38.125,38.125,0,0,1,39.35,573.57C42.71,571.466,45.093,570.929,47.29,571.275Z"/>
            <path class="cls-2" d="M140.673,605.276c-3.406-2.058-7.36-1.09-8.67-.769-11.816,2.892-17.051,19.733-18.635,24.856-2.334,7.544-4.41,14.259-.673,19.726a14.663,14.663,0,0,0,11.534,6.023c12.471.237,19.64-17.345,20.526-19.4a38.151,38.151,0,0,0,.525-23.571C144.057,608.37,142.576,606.426,140.673,605.276Z"/>
            <path class="cls-2" d="M45.448,565.767a9.01,9.01,0,0,1,10.345,3.051A33.564,33.564,0,0,1,61.9,547.763a20.535,20.535,0,0,0-5.692,2.265c-7.913,4.636-10.2,13.277-10.762,15.739Z"/>
            <path class="cls-2" d="M88.942,533.612a9.357,9.357,0,0,1,9.925,2.9,52.118,52.118,0,0,1,6.424-20.939,22.654,22.654,0,0,0-9.763,5.518,22.954,22.954,0,0,0-6.587,12.524Z"/>
            <path class="cls-2" d="M145.621,602.245a9.01,9.01,0,0,0-9.885-4.316,33.556,33.556,0,0,0,8.848-20.059,20.616,20.616,0,0,1,2.906,5.4c3.082,8.64-.717,16.73-1.869,18.977Z"/>
            <path class="cls-2" d="M133.941,550a9.356,9.356,0,0,0-9.464-4.162,52.109,52.109,0,0,0,8.535-20.172,22.656,22.656,0,0,1,3.934,10.5,22.958,22.958,0,0,1-3,13.829Z"/>
            <path class="cls-2" d="M84.632,615.134a13.761,13.761,0,0,1,5.98,4.565,30.022,30.022,0,0,1,1.765,3.724,52.316,52.316,0,0,1,2.005,7.358,28.589,28.589,0,0,0,3.289,7.565c.847,1.381,1.39,2.542,8.28,12.793a54.88,54.88,0,0,1,4.555,7.624,47.924,47.924,0,0,1,2.078,5.069,28.553,28.553,0,0,1-.2,14.1,14.674,14.674,0,0,1-7.263,9.412,16.1,16.1,0,0,1-15.105-.622,74.211,74.211,0,0,1-14.035-9.311,44.008,44.008,0,0,0-11.548-6.752A55.287,55.287,0,0,0,51.253,668.4a55.167,55.167,0,0,1-20.49-3.163,14.324,14.324,0,0,1-7.732-19.848,28.62,28.62,0,0,1,8.906-10.923,34.816,34.816,0,0,1,3.291-1.888,36.126,36.126,0,0,1,7.348-2.722c6.694-1.789,11.652-3.456,17.159-5.324a27.649,27.649,0,0,0,6.4-3.1c2.462-1.623,3.441-2.865,6.175-4.458a26.211,26.211,0,0,1,4.812-2.187,13.767,13.767,0,0,1,7.514.348Z"/>
          </g>
        </g>
        <g id="Layer_2-4" data-name="Layer 2">
          <g>
            <path class="cls-2" d="M200.56,727.151c.9-.272,3.4-1.132,6.8-4.688,3.581-3.746,5.523-7.715,7.286-12.152A105.724,105.724,0,0,0,220.3,690.6c1.907-12.144-.1-21.486-3.228-23.448a12.828,12.828,0,0,0-4.587-1.713,11.5,11.5,0,0,0-4.072.22,14.707,14.707,0,0,0-5.209,2.264,46.6,46.6,0,0,0-9.088,8.227,50.939,50.939,0,0,0-9.042,15.708c-.7,1.838-7.764,20.985,1.919,31.371a17.274,17.274,0,0,0,4.3,3.337A14.193,14.193,0,0,0,200.56,727.151Z"/>
            <path class="cls-2" d="M210.074,658.506A9.354,9.354,0,0,1,220,661.4a52.135,52.135,0,0,1,6.425-20.939,22.647,22.647,0,0,0-9.764,5.518,22.959,22.959,0,0,0-6.586,12.524Z"/>
            <path class="cls-2" d="M255.073,674.893a9.356,9.356,0,0,0-9.464-4.162,52.109,52.109,0,0,0,8.535-20.172,22.667,22.667,0,0,1,3.934,10.5,22.966,22.966,0,0,1-3,13.829Z"/>
          </g>
        </g>
      </g>
      <g>
        <g id="Layer_2-5" data-name="Layer 2">
          <g>
            <path class="cls-2" d="M516.381,270.129c.9-.271,3.4-1.131,6.8-4.688,3.582-3.745,5.523-7.714,7.287-12.151a105.721,105.721,0,0,0,5.657-19.716c1.907-12.145-.1-21.486-3.227-23.449a12.834,12.834,0,0,0-4.587-1.712,11.509,11.509,0,0,0-4.073.219,14.746,14.746,0,0,0-5.208,2.264,46.578,46.578,0,0,0-9.089,8.228,50.948,50.948,0,0,0-9.042,15.708c-.705,1.838-7.763,20.984,1.92,31.371a17.289,17.289,0,0,0,4.3,3.336A14.183,14.183,0,0,0,516.381,270.129Z"/>
            <path class="cls-2" d="M534.078,276.569c-.517-.789-1.875-3.051-2.194-7.963-.336-5.17.726-9.459,2.227-13.992a105.625,105.625,0,0,1,8.332-18.74c6.343-10.529,13.882-16.394,17.537-15.888a12.854,12.854,0,0,1,4.616,1.637,11.524,11.524,0,0,1,2.978,2.789,14.726,14.726,0,0,1,2.535,5.084,46.645,46.645,0,0,1,1.677,12.147,50.962,50.962,0,0,1-3.166,17.848c-.641,1.862-7.536,21.069-21.626,22.8a17.293,17.293,0,0,1-5.438-.208A14.193,14.193,0,0,1,534.078,276.569Z"/>
            <path class="cls-2" d="M484.242,239.147c3.931.613,6.338,3.9,7.136,4.986,7.193,9.814.384,26.083-1.695,31.024-3.062,7.282-5.783,13.76-12.157,15.544a14.657,14.657,0,0,1-12.706-2.8c-9.706-7.838-3.9-25.918-3.259-28.061A38.119,38.119,0,0,1,476.3,241.442C479.662,239.338,482.045,238.8,484.242,239.147Z"/>
            <path class="cls-2" d="M577.625,273.149c-3.406-2.058-7.36-1.09-8.67-.77-11.816,2.893-17.05,19.733-18.635,24.856-2.333,7.544-4.41,14.26-.673,19.726a14.66,14.66,0,0,0,11.534,6.023c12.472.238,19.64-17.344,20.526-19.4a38.139,38.139,0,0,0,.525-23.57C581.009,276.243,579.529,274.3,577.625,273.149Z"/>
            <path class="cls-2" d="M482.4,233.64a9.01,9.01,0,0,1,10.346,3.05,33.565,33.565,0,0,1,6.108-21.055,20.56,20.56,0,0,0-5.692,2.265c-7.913,4.637-10.2,13.277-10.762,15.739Z"/>
            <path class="cls-2" d="M525.9,201.484a9.354,9.354,0,0,1,9.924,2.9,52.139,52.139,0,0,1,6.425-20.94,22.652,22.652,0,0,0-9.764,5.518,22.966,22.966,0,0,0-6.587,12.525Z"/>
            <path class="cls-2" d="M582.573,270.117a9.011,9.011,0,0,0-9.885-4.316,33.557,33.557,0,0,0,8.849-20.059,20.6,20.6,0,0,1,2.9,5.4c3.083,8.64-.717,16.73-1.869,18.977Z"/>
            <path class="cls-2" d="M570.894,217.872a9.355,9.355,0,0,0-9.464-4.163,52.122,52.122,0,0,0,8.534-20.172,22.672,22.672,0,0,1,3.935,10.506,22.959,22.959,0,0,1-3,13.829Z"/>
            <path class="cls-2" d="M521.584,283.006a13.768,13.768,0,0,1,5.98,4.565,30.117,30.117,0,0,1,1.766,3.725,52.38,52.38,0,0,1,2,7.358,28.532,28.532,0,0,0,3.289,7.564c.847,1.382,1.389,2.543,8.28,12.793a55.03,55.03,0,0,1,4.554,7.624,47.73,47.73,0,0,1,2.078,5.07,28.541,28.541,0,0,1-.2,14.1,14.67,14.67,0,0,1-7.263,9.411,16.1,16.1,0,0,1-15.105-.621,74.2,74.2,0,0,1-14.035-9.312,44.015,44.015,0,0,0-11.547-6.751,55.3,55.3,0,0,0-13.185-2.254,55.167,55.167,0,0,1-20.49-3.163,14.324,14.324,0,0,1-7.732-19.848,28.63,28.63,0,0,1,8.906-10.924,34.807,34.807,0,0,1,3.291-1.887,36.2,36.2,0,0,1,7.349-2.723c6.693-1.788,11.651-3.456,17.158-5.324a27.686,27.686,0,0,0,6.4-3.1c2.463-1.624,3.442-2.865,6.175-4.458a26.088,26.088,0,0,1,4.813-2.187,13.755,13.755,0,0,1,7.513.348Z"/>
          </g>
        </g>
        <g id="Layer_2-6" data-name="Layer 2">
          <g>
            <path class="cls-2" d="M605.374,364.041c3.931.613,6.338,3.9,7.136,4.986,7.193,9.814.384,26.083-1.695,31.024-3.062,7.282-5.783,13.76-12.158,15.544a14.655,14.655,0,0,1-12.705-2.8c-9.706-7.839-3.9-25.918-3.26-28.061a38.125,38.125,0,0,1,14.742-18.395C600.794,364.232,603.177,363.7,605.374,364.041Z"/>
            <path class="cls-2" d="M642.716,407.9a13.774,13.774,0,0,1,5.98,4.565,29.968,29.968,0,0,1,1.765,3.725,52.243,52.243,0,0,1,2,7.358,28.6,28.6,0,0,0,3.289,7.564c.847,1.382,1.39,2.543,8.28,12.793a54.938,54.938,0,0,1,4.555,7.624,47.723,47.723,0,0,1,2.077,5.07,28.541,28.541,0,0,1-.2,14.1,14.67,14.67,0,0,1-7.263,9.411,16.1,16.1,0,0,1-15.1-.621,74.168,74.168,0,0,1-14.035-9.312,44,44,0,0,0-11.548-6.751,55.287,55.287,0,0,0-13.184-2.254A55.188,55.188,0,0,1,588.847,458a14.321,14.321,0,0,1-7.732-19.848,28.63,28.63,0,0,1,8.906-10.924,34.909,34.909,0,0,1,3.291-1.888,36.163,36.163,0,0,1,7.348-2.722c6.694-1.788,11.652-3.456,17.159-5.324a27.686,27.686,0,0,0,6.4-3.1c2.462-1.624,3.441-2.865,6.175-4.458a26.079,26.079,0,0,1,4.812-2.187,13.758,13.758,0,0,1,7.514.348Z"/>
          </g>
        </g>
      </g>
      <g>
        <g id="Layer_2-7" data-name="Layer 2">
          <g>
            <path class="cls-2" d="M225.079,270.129c.9-.271,3.4-1.131,6.8-4.688,3.581-3.745,5.523-7.714,7.286-12.151a105.724,105.724,0,0,0,5.658-19.716c1.907-12.145-.1-21.486-3.228-23.449a12.827,12.827,0,0,0-4.587-1.712,11.5,11.5,0,0,0-4.072.219,14.743,14.743,0,0,0-5.209,2.264,46.6,46.6,0,0,0-9.088,8.228,50.928,50.928,0,0,0-9.042,15.708c-.705,1.838-7.764,20.984,1.919,31.371a17.294,17.294,0,0,0,4.3,3.336A14.181,14.181,0,0,0,225.079,270.129Z"/>
            <path class="cls-2" d="M242.777,276.569c-.518-.789-1.875-3.051-2.195-7.963-.336-5.17.727-9.459,2.227-13.992a105.77,105.77,0,0,1,8.332-18.74c6.344-10.529,13.883-16.394,17.538-15.888a12.842,12.842,0,0,1,4.615,1.637,11.512,11.512,0,0,1,2.979,2.789,14.761,14.761,0,0,1,2.535,5.084,46.6,46.6,0,0,1,1.676,12.147,50.939,50.939,0,0,1-3.166,17.848c-.641,1.862-7.535,21.069-21.626,22.8a17.294,17.294,0,0,1-5.438-.208A14.192,14.192,0,0,1,242.777,276.569Z"/>
            <path class="cls-2" d="M192.941,239.147c3.931.613,6.338,3.9,7.135,4.986,7.194,9.814.384,26.083-1.694,31.024-3.062,7.282-5.784,13.76-12.158,15.544a14.658,14.658,0,0,1-12.706-2.8c-9.706-7.838-3.9-25.918-3.259-28.061A38.118,38.118,0,0,1,185,241.442C188.361,239.338,190.744,238.8,192.941,239.147Z"/>
            <path class="cls-2" d="M286.323,273.149c-3.406-2.058-7.359-1.09-8.669-.77-11.816,2.893-17.051,19.733-18.635,24.856-2.334,7.544-4.41,14.26-.674,19.726a14.66,14.66,0,0,0,11.535,6.023c12.471.238,19.64-17.344,20.525-19.4a38.139,38.139,0,0,0,.525-23.57C289.708,276.243,288.227,274.3,286.323,273.149Z"/>
            <path class="cls-2" d="M191.1,233.64a9.008,9.008,0,0,1,10.345,3.05,33.56,33.56,0,0,1,6.109-21.055,20.554,20.554,0,0,0-5.693,2.265c-7.912,4.637-10.2,13.277-10.761,15.739Z"/>
            <path class="cls-2" d="M234.593,201.484a9.353,9.353,0,0,1,9.924,2.9,52.139,52.139,0,0,1,6.425-20.94,22.657,22.657,0,0,0-9.764,5.518,22.958,22.958,0,0,0-6.586,12.525Z"/>
            <path class="cls-2" d="M291.272,270.117a9.011,9.011,0,0,0-9.885-4.316,33.562,33.562,0,0,0,8.848-20.059,20.6,20.6,0,0,1,2.9,5.4c3.083,8.64-.717,16.73-1.868,18.977Z"/>
            <path class="cls-2" d="M279.592,217.872a9.354,9.354,0,0,0-9.464-4.163,52.109,52.109,0,0,0,8.535-20.172,22.67,22.67,0,0,1,3.934,10.506,22.966,22.966,0,0,1-3,13.829Z"/>
            <path class="cls-2" d="M230.283,283.006a13.774,13.774,0,0,1,5.98,4.565,29.968,29.968,0,0,1,1.765,3.725,52.38,52.38,0,0,1,2,7.358,28.6,28.6,0,0,0,3.289,7.564c.847,1.382,1.389,2.543,8.28,12.793a55.135,55.135,0,0,1,4.555,7.624,47.723,47.723,0,0,1,2.077,5.07,28.553,28.553,0,0,1-.195,14.1,14.67,14.67,0,0,1-7.263,9.411,16.1,16.1,0,0,1-15.105-.621,74.168,74.168,0,0,1-14.035-9.312,44.021,44.021,0,0,0-11.548-6.751,55.3,55.3,0,0,0-13.184-2.254,55.164,55.164,0,0,1-20.49-3.163,14.321,14.321,0,0,1-7.732-19.848,28.63,28.63,0,0,1,8.906-10.924,34.682,34.682,0,0,1,3.291-1.887,36.166,36.166,0,0,1,7.348-2.723c6.694-1.788,11.651-3.456,17.159-5.324a27.706,27.706,0,0,0,6.4-3.1c2.462-1.624,3.441-2.865,6.174-4.458a26.118,26.118,0,0,1,4.813-2.187,13.754,13.754,0,0,1,7.513.348Z"/>
          </g>
        </g>
        <g id="Layer_2-8" data-name="Layer 2">
          <g>
            <path class="cls-2" d="M346.211,395.023c.9-.271,3.4-1.131,6.8-4.688,3.582-3.745,5.523-7.714,7.287-12.151a105.709,105.709,0,0,0,5.657-19.717c1.907-12.144-.1-21.485-3.227-23.448a12.834,12.834,0,0,0-4.587-1.712,11.5,11.5,0,0,0-4.072.219,14.743,14.743,0,0,0-5.209,2.264,46.607,46.607,0,0,0-9.089,8.228,50.948,50.948,0,0,0-9.042,15.708c-.7,1.838-7.763,20.984,1.92,31.371a17.276,17.276,0,0,0,4.3,3.336A14.18,14.18,0,0,0,346.211,395.023Z"/>
            <path class="cls-2" d="M363.909,401.463c-.518-.789-1.876-3.051-2.195-7.963-.336-5.17.727-9.46,2.227-13.992a105.7,105.7,0,0,1,8.332-18.74c6.343-10.529,13.883-16.394,17.537-15.888a12.847,12.847,0,0,1,4.616,1.637,11.521,11.521,0,0,1,2.978,2.788,14.739,14.739,0,0,1,2.535,5.085,46.6,46.6,0,0,1,1.677,12.147,50.962,50.962,0,0,1-3.166,17.848c-.641,1.862-7.535,21.068-21.626,22.8a17.294,17.294,0,0,1-5.438-.208A14.192,14.192,0,0,1,363.909,401.463Z"/>
            <path class="cls-2" d="M314.072,364.041c3.932.613,6.339,3.9,7.136,4.986,7.194,9.814.384,26.083-1.694,31.024-3.063,7.282-5.784,13.76-12.158,15.544a14.657,14.657,0,0,1-12.706-2.8c-9.706-7.839-3.9-25.918-3.259-28.061a38.119,38.119,0,0,1,14.741-18.395C309.492,364.232,311.875,363.7,314.072,364.041Z"/>
            <path class="cls-2" d="M407.455,398.043c-3.406-2.058-7.36-1.091-8.67-.77-11.815,2.893-17.05,19.733-18.635,24.856-2.333,7.544-4.41,14.26-.673,19.726a14.66,14.66,0,0,0,11.534,6.023c12.472.238,19.64-17.344,20.526-19.4a38.142,38.142,0,0,0,.525-23.571C410.84,401.136,409.359,399.193,407.455,398.043Z"/>
            <path class="cls-2" d="M312.23,358.534a9.01,9.01,0,0,1,10.346,3.05,33.56,33.56,0,0,1,6.109-21.055,20.554,20.554,0,0,0-5.693,2.265c-7.913,4.637-10.2,13.277-10.762,15.739Z"/>
            <path class="cls-2" d="M355.725,326.378a9.354,9.354,0,0,1,9.924,2.9,52.139,52.139,0,0,1,6.425-20.94,22.652,22.652,0,0,0-9.764,5.518,22.966,22.966,0,0,0-6.587,12.525Z"/>
            <path class="cls-2" d="M412.4,395.011a9.012,9.012,0,0,0-9.885-4.316,33.562,33.562,0,0,0,8.848-20.059,20.6,20.6,0,0,1,2.9,5.4c3.083,8.64-.717,16.73-1.868,18.977Z"/>
            <path class="cls-2" d="M400.724,342.766a9.355,9.355,0,0,0-9.464-4.163,52.124,52.124,0,0,0,8.535-20.172,22.681,22.681,0,0,1,3.934,10.506,22.961,22.961,0,0,1-3,13.829Z"/>
            <path class="cls-2" d="M351.415,407.9a13.765,13.765,0,0,1,5.979,4.565,30.117,30.117,0,0,1,1.766,3.725,52.38,52.38,0,0,1,2,7.358,28.6,28.6,0,0,0,3.289,7.564c.847,1.382,1.389,2.543,8.28,12.793a55.135,55.135,0,0,1,4.555,7.624,47.934,47.934,0,0,1,2.077,5.07,28.541,28.541,0,0,1-.2,14.1,14.668,14.668,0,0,1-7.262,9.411,16.1,16.1,0,0,1-15.106-.621,74.2,74.2,0,0,1-14.035-9.312,44.015,44.015,0,0,0-11.547-6.751,55.3,55.3,0,0,0-13.185-2.254A55.179,55.179,0,0,1,297.546,458a14.323,14.323,0,0,1-7.733-19.848,28.633,28.633,0,0,1,8.907-10.924,35.02,35.02,0,0,1,3.29-1.888,36.194,36.194,0,0,1,7.349-2.722c6.693-1.788,11.651-3.456,17.158-5.324a27.713,27.713,0,0,0,6.4-3.1c2.462-1.624,3.441-2.865,6.174-4.458a26.088,26.088,0,0,1,4.813-2.187,13.754,13.754,0,0,1,7.513.348Z"/>
          </g>
        </g>
      </g>
      <g>
        <g id="Layer_2-9" data-name="Layer 2">
          <g>
            <path class="cls-2" d="M-4.978,273.149c-3.406-2.058-7.36-1.09-8.67-.77-11.815,2.893-17.05,19.733-18.635,24.856-2.333,7.544-4.41,14.26-.673,19.726a14.66,14.66,0,0,0,11.534,6.023c12.472.238,19.64-17.344,20.526-19.4a38.139,38.139,0,0,0,.525-23.57C-1.594,276.243-3.074,274.3-4.978,273.149Z"/>
            <path class="cls-2" d="M-.03,270.117A9.011,9.011,0,0,0-9.915,265.8a33.557,33.557,0,0,0,8.849-20.059,20.6,20.6,0,0,1,2.905,5.4c3.083,8.64-.717,16.73-1.869,18.977Z"/>
          </g>
        </g>
        <g id="Layer_2-10" data-name="Layer 2">
          <g>
            <path class="cls-2" d="M54.91,395.023c.9-.271,3.4-1.131,6.8-4.688,3.582-3.745,5.523-7.714,7.286-12.151a105.636,105.636,0,0,0,5.658-19.717c1.907-12.144-.1-21.485-3.228-23.448a12.827,12.827,0,0,0-4.587-1.712,11.5,11.5,0,0,0-4.072.219,14.746,14.746,0,0,0-5.208,2.264,46.578,46.578,0,0,0-9.089,8.228,50.928,50.928,0,0,0-9.042,15.708c-.7,1.838-7.763,20.984,1.919,31.371a17.312,17.312,0,0,0,4.3,3.336A14.183,14.183,0,0,0,54.91,395.023Z"/>
            <path class="cls-2" d="M72.607,401.463c-.518-.789-1.875-3.051-2.195-7.963-.335-5.17.727-9.46,2.227-13.992a105.77,105.77,0,0,1,8.332-18.74c6.344-10.529,13.883-16.394,17.538-15.888a12.842,12.842,0,0,1,4.615,1.637,11.525,11.525,0,0,1,2.979,2.788,14.774,14.774,0,0,1,2.535,5.085,46.6,46.6,0,0,1,1.676,12.147,50.939,50.939,0,0,1-3.166,17.848c-.641,1.862-7.535,21.068-21.625,22.8a17.292,17.292,0,0,1-5.438-.208A14.193,14.193,0,0,1,72.607,401.463Z"/>
            <path class="cls-2" d="M22.771,364.041c3.931.613,6.338,3.9,7.136,4.986,7.193,9.814.384,26.083-1.7,31.024-3.062,7.282-5.783,13.76-12.158,15.544a14.655,14.655,0,0,1-12.7-2.8c-9.706-7.839-3.9-25.918-3.26-28.061a38.125,38.125,0,0,1,14.742-18.395C18.191,364.232,20.574,363.7,22.771,364.041Z"/>
            <path class="cls-2" d="M116.154,398.043c-3.406-2.058-7.36-1.091-8.67-.77-11.816,2.893-17.051,19.733-18.635,24.856-2.334,7.544-4.41,14.26-.673,19.726a14.66,14.66,0,0,0,11.534,6.023c12.471.238,19.64-17.344,20.526-19.4a38.15,38.15,0,0,0,.525-23.571C119.538,401.136,118.057,399.193,116.154,398.043Z"/>
            <path class="cls-2" d="M20.929,358.534a9.008,9.008,0,0,1,10.345,3.05,33.566,33.566,0,0,1,6.109-21.055,20.535,20.535,0,0,0-5.692,2.265c-7.913,4.637-10.2,13.277-10.762,15.739Z"/>
            <path class="cls-2" d="M64.423,326.378a9.355,9.355,0,0,1,9.925,2.9,52.122,52.122,0,0,1,6.424-20.94,22.654,22.654,0,0,0-9.763,5.518,22.953,22.953,0,0,0-6.587,12.525Z"/>
            <path class="cls-2" d="M121.1,395.011a9.011,9.011,0,0,0-9.885-4.316,33.556,33.556,0,0,0,8.848-20.059,20.606,20.606,0,0,1,2.906,5.4c3.082,8.64-.717,16.73-1.869,18.977Z"/>
            <path class="cls-2" d="M109.422,342.766a9.354,9.354,0,0,0-9.464-4.163,52.109,52.109,0,0,0,8.535-20.172,22.66,22.66,0,0,1,3.934,10.506,22.96,22.96,0,0,1-3,13.829Z"/>
            <path class="cls-2" d="M60.113,407.9a13.768,13.768,0,0,1,5.98,4.565,29.968,29.968,0,0,1,1.765,3.725,52.243,52.243,0,0,1,2,7.358,28.6,28.6,0,0,0,3.289,7.564c.847,1.382,1.39,2.543,8.28,12.793a54.938,54.938,0,0,1,4.555,7.624,47.941,47.941,0,0,1,2.078,5.07,28.553,28.553,0,0,1-.2,14.1,14.67,14.67,0,0,1-7.263,9.411,16.1,16.1,0,0,1-15.1-.621,74.168,74.168,0,0,1-14.035-9.312,44,44,0,0,0-11.548-6.751,55.287,55.287,0,0,0-13.184-2.254A55.188,55.188,0,0,1,6.244,458a14.214,14.214,0,0,1-9.257-12.923,14.639,14.639,0,0,1,1.525-6.925,28.63,28.63,0,0,1,8.906-10.924,35.036,35.036,0,0,1,3.291-1.888,36.185,36.185,0,0,1,7.348-2.722c6.694-1.788,11.652-3.456,17.159-5.324a27.686,27.686,0,0,0,6.4-3.1c2.462-1.624,3.441-2.865,6.175-4.458a26.079,26.079,0,0,1,4.812-2.187,13.758,13.758,0,0,1,7.514.348Z"/>
          </g>
        </g>
      </g>
      <g>
        <g id="Layer_2-11" data-name="Layer 2">
          <path class="cls-2" d="M375.934-49.121a13.75,13.75,0,0,1,5.979,4.565,30.1,30.1,0,0,1,1.766,3.724,52.416,52.416,0,0,1,2.005,7.358,28.617,28.617,0,0,0,3.289,7.565c.847,1.381,1.389,2.542,8.28,12.793a55.076,55.076,0,0,1,4.555,7.624,47.918,47.918,0,0,1,2.077,5.069,28.541,28.541,0,0,1-.2,14.1,14.668,14.668,0,0,1-7.262,9.411,16.1,16.1,0,0,1-15.106-.621,74.2,74.2,0,0,1-14.035-9.312A44.042,44.042,0,0,0,355.739,6.4a55.3,55.3,0,0,0-13.185-2.254A55.159,55.159,0,0,1,322.065.982a14.6,14.6,0,0,1-8.216-7.968,14.5,14.5,0,0,1-1.042-4.954,14.667,14.667,0,0,1,1.525-6.926,28.633,28.633,0,0,1,8.907-10.924,35.011,35.011,0,0,1,3.29-1.887,36.134,36.134,0,0,1,7.349-2.722c6.693-1.789,11.651-3.456,17.158-5.325a27.632,27.632,0,0,0,6.4-3.1c2.462-1.624,3.441-2.865,6.174-4.458a26.154,26.154,0,0,1,4.813-2.187,13.754,13.754,0,0,1,7.513.348Z"/>
        </g>
        <g id="Layer_2-12" data-name="Layer 2">
          <g>
            <path class="cls-2" d="M491.862,62.9c.9-.271,3.4-1.131,6.8-4.688,3.582-3.745,5.523-7.714,7.287-12.151A105.721,105.721,0,0,0,511.6,26.34c1.907-12.145-.1-21.486-3.228-23.448a12.83,12.83,0,0,0-4.586-1.713,11.509,11.509,0,0,0-4.073.219,14.731,14.731,0,0,0-5.208,2.265,46.573,46.573,0,0,0-9.089,8.227A50.948,50.948,0,0,0,476.377,27.6c-.7,1.838-7.763,20.985,1.92,31.371a17.316,17.316,0,0,0,4.3,3.337A14.192,14.192,0,0,0,491.862,62.9Z"/>
            <path class="cls-2" d="M509.559,69.335c-.517-.788-1.875-3.051-2.194-7.962-.336-5.171.726-9.46,2.227-13.992a105.6,105.6,0,0,1,8.332-18.741c6.343-10.528,13.882-16.393,17.537-15.887a12.852,12.852,0,0,1,4.616,1.636,11.524,11.524,0,0,1,2.978,2.789,14.726,14.726,0,0,1,2.535,5.084,46.651,46.651,0,0,1,1.677,12.147A50.962,50.962,0,0,1,544.1,52.257c-.641,1.863-7.536,21.069-21.626,22.8a17.323,17.323,0,0,1-5.438-.209A14.193,14.193,0,0,1,509.559,69.335Z"/>
            <path class="cls-2" d="M459.723,31.913c3.931.614,6.338,3.9,7.136,4.986,7.193,9.814.384,26.083-1.695,31.025-3.062,7.281-5.783,13.759-12.157,15.544a14.66,14.66,0,0,1-12.706-2.8c-9.706-7.838-3.9-25.917-3.259-28.06a38.12,38.12,0,0,1,14.741-18.4C455.143,32.1,457.526,31.568,459.723,31.913Z"/>
            <path class="cls-2" d="M553.106,65.915c-3.406-2.058-7.36-1.09-8.67-.769C532.62,68.038,527.386,84.878,525.8,90c-2.333,7.544-4.41,14.259-.673,19.726a14.659,14.659,0,0,0,11.534,6.022c12.472.238,19.64-17.344,20.526-19.4a38.139,38.139,0,0,0,.525-23.57C556.49,69.009,555.01,67.065,553.106,65.915Z"/>
            <path class="cls-2" d="M457.881,26.406a9.01,9.01,0,0,1,10.346,3.051A33.566,33.566,0,0,1,474.335,8.4a20.562,20.562,0,0,0-5.692,2.266c-7.913,4.636-10.2,13.277-10.762,15.738Z"/>
            <path class="cls-2" d="M501.376-5.749a9.355,9.355,0,0,1,9.924,2.9,52.135,52.135,0,0,1,6.425-20.939,22.641,22.641,0,0,0-9.764,5.518,22.963,22.963,0,0,0-6.587,12.524Z"/>
            <path class="cls-2" d="M558.054,62.884a9.008,9.008,0,0,0-9.885-4.316,33.56,33.56,0,0,0,8.849-20.059,20.581,20.581,0,0,1,2.9,5.4c3.083,8.64-.717,16.73-1.869,18.977Z"/>
            <path class="cls-2" d="M546.375,10.638a9.355,9.355,0,0,0-9.464-4.162A52.12,52.12,0,0,0,545.445-13.7,22.676,22.676,0,0,1,549.38-3.191a22.959,22.959,0,0,1-3,13.829Z"/>
            <path class="cls-2" d="M497.065,75.773a13.753,13.753,0,0,1,5.98,4.565,30.1,30.1,0,0,1,1.766,3.724,52.416,52.416,0,0,1,2,7.358,28.552,28.552,0,0,0,3.289,7.565c.847,1.381,1.389,2.542,8.28,12.793a55.02,55.02,0,0,1,4.554,7.623,47.816,47.816,0,0,1,2.078,5.07,28.541,28.541,0,0,1-.2,14.1,14.67,14.67,0,0,1-7.263,9.411,16.094,16.094,0,0,1-15.105-.621,74.2,74.2,0,0,1-14.035-9.312,44.042,44.042,0,0,0-11.547-6.751,55.3,55.3,0,0,0-13.185-2.254,55.167,55.167,0,0,1-20.49-3.163,14.324,14.324,0,0,1-7.732-19.848A28.63,28.63,0,0,1,444.37,95.1a35.027,35.027,0,0,1,3.291-1.887A36.134,36.134,0,0,1,455.01,90.5c6.693-1.789,11.651-3.456,17.158-5.325a27.605,27.605,0,0,0,6.4-3.1c2.463-1.624,3.442-2.865,6.175-4.458a26.154,26.154,0,0,1,4.813-2.187,13.755,13.755,0,0,1,7.513.348Z"/>
          </g>
        </g>
      </g>
      <g>
        <g id="Layer_2-13" data-name="Layer 2">
          <path class="cls-2" d="M84.632-49.121a13.753,13.753,0,0,1,5.98,4.565,29.955,29.955,0,0,1,1.765,3.724,52.279,52.279,0,0,1,2.005,7.358,28.617,28.617,0,0,0,3.289,7.565c.847,1.381,1.39,2.542,8.28,12.793a54.88,54.88,0,0,1,4.555,7.624,47.924,47.924,0,0,1,2.078,5.069,28.553,28.553,0,0,1-.2,14.1,14.67,14.67,0,0,1-7.263,9.411,16.094,16.094,0,0,1-15.105-.621A74.168,74.168,0,0,1,75.985,13.15,44.032,44.032,0,0,0,64.437,6.4,55.287,55.287,0,0,0,51.253,4.145,55.167,55.167,0,0,1,30.763.982a14.6,14.6,0,0,1-8.215-7.968,14.472,14.472,0,0,1-1.042-4.954,14.643,14.643,0,0,1,1.525-6.926A28.63,28.63,0,0,1,31.937-29.79a35.027,35.027,0,0,1,3.291-1.887A36.126,36.126,0,0,1,42.576-34.4c6.694-1.789,11.652-3.456,17.159-5.325a27.605,27.605,0,0,0,6.4-3.1c2.462-1.624,3.441-2.865,6.175-4.458a26.145,26.145,0,0,1,4.812-2.187,13.758,13.758,0,0,1,7.514.348Z"/>
        </g>
        <g id="Layer_2-14" data-name="Layer 2">
          <g>
            <path class="cls-2" d="M200.56,62.9c.9-.271,3.4-1.131,6.8-4.688,3.581-3.745,5.523-7.714,7.286-12.151A105.724,105.724,0,0,0,220.3,26.34c1.907-12.145-.1-21.486-3.228-23.448a12.828,12.828,0,0,0-4.587-1.713,11.5,11.5,0,0,0-4.072.219,14.727,14.727,0,0,0-5.209,2.265,46.6,46.6,0,0,0-9.088,8.227A50.928,50.928,0,0,0,185.076,27.6c-.7,1.838-7.764,20.985,1.919,31.371a17.321,17.321,0,0,0,4.3,3.337A14.188,14.188,0,0,0,200.56,62.9Z"/>
            <path class="cls-2" d="M218.258,69.335c-.518-.788-1.875-3.051-2.2-7.962-.336-5.171.727-9.46,2.227-13.992a105.747,105.747,0,0,1,8.332-18.741c6.344-10.528,13.883-16.393,17.538-15.887a12.84,12.84,0,0,1,4.615,1.636,11.512,11.512,0,0,1,2.979,2.789,14.761,14.761,0,0,1,2.535,5.084,46.607,46.607,0,0,1,1.676,12.147A50.939,50.939,0,0,1,252.8,52.257c-.641,1.863-7.535,21.069-21.626,22.8a17.324,17.324,0,0,1-5.438-.209A14.192,14.192,0,0,1,218.258,69.335Z"/>
            <path class="cls-2" d="M168.422,31.913c3.931.614,6.338,3.9,7.135,4.986,7.194,9.814.384,26.083-1.694,31.025-3.062,7.281-5.784,13.759-12.158,15.544A14.662,14.662,0,0,1,149,80.664c-9.706-7.838-3.9-25.917-3.259-28.06a38.12,38.12,0,0,1,14.741-18.4C163.842,32.1,166.225,31.568,168.422,31.913Z"/>
            <path class="cls-2" d="M261.8,65.915c-3.406-2.058-7.359-1.09-8.669-.769C241.319,68.038,236.084,84.878,234.5,90c-2.334,7.544-4.41,14.259-.674,19.726a14.659,14.659,0,0,0,11.535,6.022c12.471.238,19.64-17.344,20.525-19.4a38.139,38.139,0,0,0,.525-23.57C265.189,69.009,263.708,67.065,261.8,65.915Z"/>
            <path class="cls-2" d="M166.58,26.406a9.009,9.009,0,0,1,10.345,3.051A33.561,33.561,0,0,1,183.034,8.4a20.556,20.556,0,0,0-5.693,2.266c-7.912,4.636-10.2,13.277-10.761,15.738Z"/>
            <path class="cls-2" d="M210.074-5.749A9.354,9.354,0,0,1,220-2.852a52.135,52.135,0,0,1,6.425-20.939,22.647,22.647,0,0,0-9.764,5.518,22.955,22.955,0,0,0-6.586,12.524Z"/>
            <path class="cls-2" d="M266.753,62.884a9.008,9.008,0,0,0-9.885-4.316,33.564,33.564,0,0,0,8.848-20.059,20.581,20.581,0,0,1,2.9,5.4c3.083,8.64-.717,16.73-1.868,18.977Z"/>
            <path class="cls-2" d="M255.073,10.638a9.354,9.354,0,0,0-9.464-4.162A52.107,52.107,0,0,0,254.144-13.7a22.675,22.675,0,0,1,3.934,10.506,22.966,22.966,0,0,1-3,13.829Z"/>
            <path class="cls-2" d="M205.764,75.773a13.759,13.759,0,0,1,5.98,4.565,29.955,29.955,0,0,1,1.765,3.724,52.416,52.416,0,0,1,2.005,7.358,28.617,28.617,0,0,0,3.289,7.565c.847,1.381,1.389,2.542,8.28,12.793a55.125,55.125,0,0,1,4.555,7.623,47.809,47.809,0,0,1,2.077,5.07,28.553,28.553,0,0,1-.195,14.1,14.67,14.67,0,0,1-7.263,9.411,16.094,16.094,0,0,1-15.105-.621,74.168,74.168,0,0,1-14.035-9.312,44.048,44.048,0,0,0-11.548-6.751,55.3,55.3,0,0,0-13.184-2.254,55.164,55.164,0,0,1-20.49-3.163,14.323,14.323,0,0,1-7.733-19.848A28.642,28.642,0,0,1,153.069,95.1a34.9,34.9,0,0,1,3.291-1.887,36.1,36.1,0,0,1,7.348-2.722c6.694-1.789,11.651-3.456,17.159-5.325a27.625,27.625,0,0,0,6.4-3.1c2.462-1.624,3.441-2.865,6.174-4.458a26.184,26.184,0,0,1,4.813-2.187,13.754,13.754,0,0,1,7.513.348Z"/>
          </g>
        </g>
      </g>
    </pattern>
  </defs>
  <rect class="cls-3" width="1904" height="990"/>
</svg>
