<?xml version="1.0" encoding="utf-8"?>
<!-- Generator: Adobe Illustrator 24.3.0, SVG Export Plug-In . SVG Version: 6.00 Build 0)  -->
<svg version="1.1" id="Layer_1" xmlns="http://www.w3.org/2000/svg" xmlns:xlink="http://www.w3.org/1999/xlink" x="0px" y="0px"
	 viewBox="0 0 300 300" style="enable-background:new 0 0 300 300;" xml:space="preserve">
<style type="text/css">
	.st0{fill:#C2C7D0;stroke:#FFD700;stroke-width:4;stroke-miterlimit:10;}
</style>
<path class="st0" d="M204.4,113.8c0,30-24.3,54.4-54.4,54.4s-54.4-24.3-54.4-54.4S120,59.4,150,59.4S204.4,83.7,204.4,113.8z"/>
<path class="st0" d="M41.3,5C21.2,5,5,21.2,5,41.3v217.5c0,20,16.2,36.3,36.3,36.3h217.5c20,0,36.3-16.2,36.3-36.3V41.3
	c0-20-16.2-36.3-36.3-36.3H41.3z M258.8,23.1c10,0,18.1,8.1,18.1,18.1v217.5c0,10-8.1,18.1-18.1,18.1v-18.1
	c0-18.1-18.1-72.5-108.8-72.5S41.3,240.6,41.3,258.8v18.1c-10,0-18.1-8.1-18.1-18.1V41.3c0-10,8.1-18.1,18.1-18.1H258.8z"/>
</svg>
