<?xml version="1.0" encoding="utf-8"?>
<!-- Generator: Adobe Illustrator 24.3.0, SVG Export Plug-In . SVG Version: 6.00 Build 0)  -->
<svg version="1.1" id="Layer_1" xmlns="http://www.w3.org/2000/svg" xmlns:xlink="http://www.w3.org/1999/xlink" x="0px" y="0px"
	 viewBox="0 0 128 128" style="enable-background:new 0 0 128 128;" xml:space="preserve">
<style type="text/css">
	.st0{fill:#C2C7D0;stroke:#FFD700;stroke-width:3;stroke-miterlimit:10;}
</style>
<path class="st0" d="M88,48.1c0,13.2-10.7,24-24,24s-24-10.7-24-24s10.8-24,24-24S88,34.8,88,48.1z"/>
<path class="st0" d="M19.1,4c-8.3,0-15,6.7-15,15v90c0,8.3,6.7,15,15,15h90c8.3,0,15-6.7,15-15v-90c0-8.3-6.7-15-15-15H19.1z
	 M109,11.5c4.1,0,7.5,3.4,7.5,7.5v90c0,4.1-3.4,7.5-7.5,7.5V109c0-7.5-7.5-30-45-30s-45,22.5-45,30v7.5c-4.1,0-7.5-3.4-7.5-7.5v-90
	c0-4.1,3.4-7.5,7.5-7.5L109,11.5L109,11.5z"/>
</svg>
