<svg xmlns="http://www.w3.org/2000/svg" viewBox="0 0 145.54 60.888"><g id="Layer_1" data-name="Layer 1"><path d="M4.978,65.607V44.888h8.647a15.092,15.092,0,0,1,5.012.678,5.357,5.357,0,0,1,2.733,1.957,5.42,5.42,0,0,1,.86,3.095,4.392,4.392,0,0,1-.968,2.839A6.118,6.118,0,0,1,18.4,55.311a14.7,14.7,0,0,1-4.733.653H9.839v9.643ZM9.839,53.892h2.238a15.227,15.227,0,0,0,3.312-.282,2.836,2.836,0,0,0,1.721-.984,3.3,3.3,0,0,0,.516-1.983,5.62,5.62,0,0,0-.365-2.276,2.152,2.152,0,0,0-1.527-1.1,15.411,15.411,0,0,0-3.614-.307H9.839Z" transform="translate(-4.978 -4.975)"/><path d="M25.628,65.607V44.888H32.64a25.167,25.167,0,0,1,5.766.55A6.477,6.477,0,0,1,41.783,47.2a4.57,4.57,0,0,1,1.1,3.184,5.416,5.416,0,0,1-.429,2.187,4.007,4.007,0,0,1-1.377,1.663,6.394,6.394,0,0,1-2.495.985l4.947,10.385h-4.69l-4.559-9.72H30.49v9.72ZM30.49,53.815h1.849a14.938,14.938,0,0,0,3.356-.307,3.346,3.346,0,0,0,1.893-1.049,3.2,3.2,0,0,0,.6-2.072,3.01,3.01,0,0,0-1.118-2.621q-1.119-.806-4.432-.806H30.49Z" transform="translate(-4.978 -4.975)"/><path d="M48.214,65.607V44.888H52.99V65.607Z" transform="translate(-4.978 -4.975)"/><path d="M58.625,65.607V44.888h3.313l9.894,13.761V44.888h4.044V65.607h-3.1L62.755,51.462V65.607Z" transform="translate(-4.978 -4.975)"/><path d="M85.168,65.607V47.037H79.275V44.888H95.752v2.149H90.03v18.57Z" transform="translate(-4.978 -4.975)"/><path d="M99.367,65.607V44.888h4.775V65.607Z" transform="translate(-4.978 -4.975)"/><path d="M109.776,65.607V44.888h3.313l9.895,13.761V44.888h4.044V65.607h-3.1L113.907,51.462V65.607Z" transform="translate(-4.978 -4.975)"/><path d="M140.795,65.862a13.588,13.588,0,0,1-5.227-.831,5.606,5.606,0,0,1-2.839-2.417,7.718,7.718,0,0,1-.882-3.811V51.871a8.62,8.62,0,0,1,.8-3.875,5.217,5.217,0,0,1,2.839-2.443,15.378,15.378,0,0,1,5.7-.844,17.443,17.443,0,0,1,5.271.652,5.336,5.336,0,0,1,2.9,2,5.952,5.952,0,0,1,.9,3.389v.767H145.7v-.639a6.821,6.821,0,0,0-.3-2.213,2.185,2.185,0,0,0-1.227-1.279,7.436,7.436,0,0,0-2.9-.422,6.243,6.243,0,0,0-3.118.588,2.491,2.491,0,0,0-1.205,1.6,10.064,10.064,0,0,0-.237,2.289V59.11a7.24,7.24,0,0,0,.366,2.481,2.583,2.583,0,0,0,1.4,1.483,7.034,7.034,0,0,0,2.926.486,6.457,6.457,0,0,0,2.925-.537,2.857,2.857,0,0,0,1.42-1.586,7.62,7.62,0,0,0,.387-2.609V57.4H141.7V55.35h8.819V65.607h-3.055l-.472-2.379a5.118,5.118,0,0,1-2.152,1.893A9.076,9.076,0,0,1,140.795,65.862Z" transform="translate(-4.978 -4.975)"/></g><g id="Layer_2" data-name="Layer 2"><path d="M5.87,42.266V5.3h8.674V38.568H30.436v3.7Z" transform="translate(-4.978 -4.975)"/><path d="M51.778,42.676a28.4,28.4,0,0,1-10.058-1.46,10.268,10.268,0,0,1-5.373-4.176,12.238,12.238,0,0,1-1.612-6.368V16.66a11.549,11.549,0,0,1,1.65-6.277,10.338,10.338,0,0,1,5.374-4.016A29.342,29.342,0,0,1,51.778,4.975,28.574,28.574,0,0,1,61.757,6.39a10.5,10.5,0,0,1,5.336,4.016,11.439,11.439,0,0,1,1.651,6.254V30.718a11.814,11.814,0,0,1-1.651,6.3,10.633,10.633,0,0,1-5.336,4.176A27.357,27.357,0,0,1,51.778,42.676Zm0-4.062A12.547,12.547,0,0,0,57,37.77a4.508,4.508,0,0,0,2.38-2.373,9.571,9.571,0,0,0,.615-3.584V15.61a9.217,9.217,0,0,0-.615-3.538A4.367,4.367,0,0,0,57,9.79a13.2,13.2,0,0,0-5.219-.8,13.5,13.5,0,0,0-5.259.8A4.359,4.359,0,0,0,44.1,12.072a9.218,9.218,0,0,0-.613,3.538v16.2A9.572,9.572,0,0,0,44.1,35.4a4.5,4.5,0,0,0,2.419,2.373A12.831,12.831,0,0,0,51.778,38.614Z" transform="translate(-4.978 -4.975)"/><path d="M77.264,42.266V5.3H91.543a42.829,42.829,0,0,1,7.332.547,16.8,16.8,0,0,1,5.182,1.689,7.652,7.652,0,0,1,3.07,2.9,8.221,8.221,0,0,1,1,4.131,7.78,7.78,0,0,1-.959,3.948,6.6,6.6,0,0,1-2.918,2.625,14.4,14.4,0,0,1-5.027,1.232,18.436,18.436,0,0,1,6.065,1.712,8.306,8.306,0,0,1,3.416,3.1,8.816,8.816,0,0,1,1.113,4.542,10.062,10.062,0,0,1-.922,4.336,8.386,8.386,0,0,1-2.879,3.332,14.96,14.96,0,0,1-4.99,2.123,30.066,30.066,0,0,1-7.178.753ZM85.94,20.722h5.142a21.092,21.092,0,0,0,5.758-.616,4.875,4.875,0,0,0,2.918-1.986,6.7,6.7,0,0,0,.844-3.56,4.679,4.679,0,0,0-1.305-3.7,7.319,7.319,0,0,0-4.068-1.438,70.7,70.7,0,0,0-7.217-.3H85.94Zm0,17.846h5.834q5.832,0,7.793-1.62t1.957-5.226a6.951,6.951,0,0,0-1.037-3.9,6.28,6.28,0,0,0-3.3-2.373,18.9,18.9,0,0,0-6.1-.8H85.94Z" transform="translate(-4.978 -4.975)"/><path d="M133.382,42.676a28.392,28.392,0,0,1-10.057-1.46,10.274,10.274,0,0,1-5.374-4.176,12.238,12.238,0,0,1-1.613-6.368V16.66a11.541,11.541,0,0,1,1.652-6.277,10.329,10.329,0,0,1,5.374-4.016,29.336,29.336,0,0,1,10.018-1.392,28.576,28.576,0,0,1,9.98,1.415,10.5,10.5,0,0,1,5.336,4.016,11.447,11.447,0,0,1,1.65,6.254V30.718a11.823,11.823,0,0,1-1.65,6.3,10.638,10.638,0,0,1-5.336,4.176A27.359,27.359,0,0,1,133.382,42.676Zm0-4.062a12.553,12.553,0,0,0,5.22-.844,4.508,4.508,0,0,0,2.38-2.373,9.591,9.591,0,0,0,.614-3.584V15.61a9.236,9.236,0,0,0-.614-3.538A4.367,4.367,0,0,0,138.6,9.79a13.2,13.2,0,0,0-5.22-.8,13.5,13.5,0,0,0-5.259.8,4.363,4.363,0,0,0-2.419,2.282,9.217,9.217,0,0,0-.614,3.538v16.2A9.571,9.571,0,0,0,125.7,35.4a4.5,4.5,0,0,0,2.419,2.373A12.835,12.835,0,0,0,133.382,38.614Z" transform="translate(-4.978 -4.975)"/></g></svg>