<svg id="Layer_1" data-name="Layer 1" xmlns="http://www.w3.org/2000/svg" width="36" height="26.998" viewBox="0 0 36 26.998">
  <defs>
    <style>
      .cls-1, .cls-2 {
        fill: #191919;
      }

      .cls-2 {
        fill-rule: evenodd;
      }
    </style>
  </defs>
  <path class="cls-1" d="M14.5,19a6.75,6.75,0,1,0-6.75-6.75A6.75,6.75,0,0,0,14.5,19ZM19,12.25a4.5,4.5,0,1,1-4.5-4.5A4.5,4.5,0,0,1,19,12.25Zm9,18a2.2,2.2,0,0,1-2.25,2.25H3.25A2.2,2.2,0,0,1,1,30.249c0-2.25,2.25-9,13.5-9S28,28,28,30.249Zm-2.25-.009A6.006,6.006,0,0,0,23.877,26.5c-1.467-1.467-4.227-3-9.377-3s-7.911,1.53-9.378,3A6.028,6.028,0,0,0,3.25,30.24Z" transform="translate(-1 -5.501)"/>
  <path class="cls-2" d="M36.67,12.579a1.125,1.125,0,0,1,0,1.591l0,0-6.75,6.749a1.125,1.125,0,0,1-1.591,0l0,0-3.374-3.374a1.126,1.126,0,0,1,1.593-1.593l2.578,2.58,5.953-5.955a1.125,1.125,0,0,1,1.591,0Z" transform="translate(-1 -5.501)"/>
</svg>
