<?xml version="1.0" encoding="utf-8"?>
<!-- Generator: Adobe Illustrator 24.3.0, SVG Export Plug-In . SVG Version: 6.00 Build 0)  -->
<svg version="1.1" id="Layer_1" xmlns="http://www.w3.org/2000/svg" xmlns:xlink="http://www.w3.org/1999/xlink" x="0px" y="0px"
	 viewBox="0 0 500 500" style="enable-background:new 0 0 500 500;" xml:space="preserve">
<style type="text/css">
	.st0{fill:#FCC425;}
	.st1{fill:#B6C4CD;}
	.st2{fill:#6F7A80;}
	.st3{fill:#B9DFF2;}
</style>
<g id="Layer_2_1_">
	<rect class="st0" width="500" height="500"/>
</g>
<g id="Layer_1_1_">
	<path class="st1" d="M235.5,430.1C129,275.7,109.2,259.8,109.2,203.1c0-77.7,63-140.8,140.8-140.8s140.8,63,140.8,140.8
		c0,56.8-19.8,72.6-126.3,227c-5.5,8-16.5,10-24.5,4.4C238.2,433.3,236.7,431.8,235.5,430.1L235.5,430.1z M250,261.7
		c32.4,0,58.6-26.3,58.6-58.6c0-32.4-26.3-58.6-58.6-58.6s-58.6,26.3-58.6,58.6v0C191.4,235.5,217.6,261.7,250,261.7z"/>
	<path class="st2" d="M250,445L250,445c-8.2,0-15.8-4-20.5-10.7l0,0c-19-27.5-35-50.3-49.1-70.4c-32.1-45.8-51.5-73.4-63.1-95.8
		c-11.3-21.9-15.5-39.5-15.5-65C101.9,121.4,168.3,55,250,55s148.1,66.4,148.1,148.1c0,25.5-4.2,43.2-15.5,65
		c-11.5,22.4-30.9,50-63.1,95.8c-14.1,20.1-30.1,42.8-49.1,70.4C265.8,441,258.2,445,250,445z M241.6,425.9
		c3.2,4.7,9.6,5.8,14.3,2.6c1-0.7,1.9-1.6,2.6-2.6c19-27.6,35-50.3,49.1-70.5c62.8-89.5,75.9-108.1,75.9-152.4
		c0-73.6-59.9-133.4-133.4-133.4s-133.4,59.9-133.4,133.4c0,44.3,13.1,62.9,75.9,152.4C206.6,375.6,222.6,398.4,241.6,425.9z
		 M250,269.1c-36.4,0-66-29.5-66-66s29.5-66,66-66s66,29.5,66,66C315.9,239.5,286.4,269,250,269.1z M250,151.8
		c-28.3,0-51.3,23-51.3,51.3s23,51.3,51.3,51.3s51.3-23,51.3-51.3c0,0,0,0,0,0C301.3,174.8,278.3,151.8,250,151.8z"/>
	<circle class="st3" cx="250" cy="203.1" r="51.3"/>
</g>
</svg>
