<?xml version="1.0" encoding="utf-8"?>
<!-- Generator: Adobe Illustrator 24.3.0, SVG Export Plug-In . SVG Version: 6.00 Build 0)  -->
<svg version="1.1" id="Layer_1" xmlns="http://www.w3.org/2000/svg" xmlns:xlink="http://www.w3.org/1999/xlink" x="0px" y="0px"
	 viewBox="0 0 500 500" style="enable-background:new 0 0 500 500;" xml:space="preserve">
<style type="text/css">
	.st0{fill:#FCC425;}
	.st1{fill:#B6C4CD;stroke:#707E87;stroke-width:14;stroke-miterlimit:10;}
	.st2{fill:#009FD5;stroke:#707E87;stroke-miterlimit:10;}
	.st3{fill:none;stroke:#707E87;stroke-width:12;stroke-miterlimit:10;}
	.st4{fill:none;stroke:#707E87;stroke-width:14;stroke-miterlimit:10;}
</style>
<g id="Layer_2_1_">
	<rect class="st0" width="500" height="500"/>
</g>
<g id="Layer_1_1_">
	<path class="st1" d="M425,326.7l-81.1-34.8c-7.1-3.1-15.4-1-20.3,5l-36,43.9c-56.4-26.6-101.8-72-128.4-128.4l43.9-36
		c6.1-4.9,8.1-13.2,5-20.3L173.2,75c-3.4-7.7-11.7-11.9-19.9-10.1L77.9,82.3c-7.9,1.8-13.5,8.8-13.5,16.9
		c0,185.9,150.6,336.3,336.3,336.3c8.1,0,15.1-5.6,16.9-13.5l17.4-75.4C437,338.4,432.7,330.1,425,326.7L425,326.7z"/>
	<polyline class="st2" points="132.6,69.7 153.3,64.9 161.1,64.9 169.6,69.7 173.3,74.9 208.1,156.2 208.1,169.8 203,176.5 
		184.5,191.6 132.6,69.7 	"/>
	<polyline class="st2" points="310.3,318.8 432.3,370.5 435.1,346.7 434.1,338.4 424.6,328.6 343.2,294.4 336.9,293.1 327.4,295.6 
		321.8,301 310.3,318.8 	"/>
	<line class="st3" x1="307.2" y1="316.8" x2="429.6" y2="370.5"/>
	<path class="st4" d="M132.6,71.3l51.9,120.4"/>
	<path class="st3" d="M425,326.7l-81.1-34.8c-7.1-3.1-15.4-1-20.3,5l-36,43.9c-56.4-26.6-101.8-72-128.4-128.4l43.9-36
		c6.1-4.9,8.1-13.2,5-20.3L173.2,75c-3.4-7.7-11.7-11.9-19.9-10.1L77.9,82.3c-7.9,1.8-13.5,8.8-13.5,16.9
		c0,185.9,150.6,336.3,336.3,336.3c8.1,0,15.1-5.6,16.9-13.5l17.4-75.4C437,338.4,432.7,330.1,425,326.7z"/>
</g>
</svg>
