<svg xmlns="http://www.w3.org/2000/svg" xmlns:xlink="http://www.w3.org/1999/xlink" width="1887.592" height="566.828" viewBox="0 0 1887.592 566.828">
  <defs>
    <style>
      .cls-1, .cls-2, .cls-3 {
        fill: none;
      }

      .cls-2, .cls-3 {
        stroke: #d1d3d4;
        stroke-width: 4px;
      }

      .cls-2 {
        stroke-linecap: round;
        stroke-linejoin: round;
      }

      .cls-3 {
        stroke-miterlimit: 10;
      }

      .cls-4 {
        fill: url(#New_Pattern_3);
      }
    </style>
    <pattern id="New_Pattern_3" data-name="New Pattern 3" width="312.015" height="276.185" patternUnits="userSpaceOnUse" viewBox="0 0 312.015 276.185">
      <rect class="cls-1" width="312.015" height="276.185"/>
      <path class="cls-2" d="M55.16,212.326h46.7l7.783-33.725H47.377M37,168.224h7.783L57.754,222.7h44.1"/>
      <circle class="cls-2" cx="96.668" cy="233.08" r="5.188"/>
      <circle class="cls-2" cx="62.942" cy="233.08" r="5.188"/>
      <path class="cls-3" d="M206.467,214.045a20.041,20.041,0,0,1,3.091-7.3l-5.277.215,3.623-7.245h-5.332a61.913,61.913,0,0,1,7.114-11.807,38.318,38.318,0,0,1-1.105-5.948c-.18-1.759-.188-3.157-.188-3.592,0-.972.043-1.729.065-2.083.026-.411.092-1.309.254-2.474a18.573,18.573,0,0,1,.543-2.913,9.311,9.311,0,0,1,1.09-2.623,5.993,5.993,0,0,1,1.881-2.023,5.529,5.529,0,0,1,2.859-.836,5.015,5.015,0,0,1,2.433.59l10.139,8.42a31.45,31.45,0,0,1,21.144,0l10.157-8.544a5.442,5.442,0,0,1,1.071-.346,5.522,5.522,0,0,1,1.17-.119,5.054,5.054,0,0,1,2.057.417,5.26,5.26,0,0,1,1.861,1.415c1.891,2.109,2.395,6.059,2.456,6.567a35.262,35.262,0,0,1-.972,14.082,57.647,57.647,0,0,1,7.29,11.818h-5.332l3.623,7.245-5.276-.215a20.1,20.1,0,0,1,3.091,7.3,48.238,48.238,0,0,0-5.414.281c-.772.085-1.687.186-2.873.413a30.535,30.535,0,0,0-4.593,1.25,5.056,5.056,0,0,0-1.972,1.308,7.249,7.249,0,0,0-.69.946,7.41,7.41,0,0,0-.706,1.532c-.806,2.348-.894,2.274-1.584,4.464-.368,1.17-.619,2.068-.833,2.921-.021.082-.06.241-.138.559-.362,1.483-.59,2.413-.808,3.355a19.184,19.184,0,0,1-.6,2.544,7.764,7.764,0,0,1-1.372,2.135,8.447,8.447,0,0,1-2.384,1.809,12.459,12.459,0,0,1-3.875,1.294,18.773,18.773,0,0,1-3.92.33,17.925,17.925,0,0,1-4.679-.49,11.687,11.687,0,0,1-4.725-2.2,7.351,7.351,0,0,1-1.451-1.578,6.967,6.967,0,0,1-.892-1.915c-.2-.965-.743-3.493-1.31-5.643-.235-.892-.286-1-.586-2.156-.221-.85-.318-1.269-.554-1.949-.085-.244-.075-.208-.412-1.106-.348-.926-.343-.95-.558-1.515a17.51,17.51,0,0,0-.75-1.812,9.142,9.142,0,0,0-1-1.52,6.485,6.485,0,0,0-1.3-.99,6.628,6.628,0,0,0-1.258-.557,27.152,27.152,0,0,0-4.873-1.154C210.98,214.231,208.338,214.1,206.467,214.045Z"/>
      <path class="cls-2" d="M215.376,82.967h46.7l7.783-33.725H207.593M197.216,38.865H205L217.97,93.344h44.1"/>
      <circle class="cls-2" cx="256.884" cy="103.721" r="5.188"/>
      <circle class="cls-2" cx="223.159" cy="103.721" r="5.188"/>
      <path class="cls-3" d="M44.93,85.634a20.06,20.06,0,0,1,3.091-7.305l-5.276.216L46.368,71.3H41.036a61.873,61.873,0,0,1,7.113-11.806,38.46,38.46,0,0,1-1.105-5.948c-.18-1.759-.188-3.158-.188-3.592,0-.973.043-1.73.065-2.083.027-.412.092-1.31.254-2.474a18.528,18.528,0,0,1,.543-2.913,9.346,9.346,0,0,1,1.09-2.624,5.994,5.994,0,0,1,1.882-2.022A5.516,5.516,0,0,1,53.548,37a4.967,4.967,0,0,1,1.071.1,5.023,5.023,0,0,1,1.362.49l10.14,8.421a31.439,31.439,0,0,1,21.143,0l10.157-8.544A5.482,5.482,0,0,1,99.662,37a5.035,5.035,0,0,1,2.057.417,5.239,5.239,0,0,1,1.861,1.414c1.891,2.11,2.4,6.06,2.456,6.568a35.259,35.259,0,0,1-.972,14.081,57.72,57.72,0,0,1,7.29,11.818h-5.332l3.623,7.246-5.275-.216a20.124,20.124,0,0,1,3.09,7.3,48.2,48.2,0,0,0-5.414.282c-.772.084-1.686.186-2.873.412a30.656,30.656,0,0,0-4.593,1.25,5.039,5.039,0,0,0-1.972,1.309,7.273,7.273,0,0,0-.69.946,7.41,7.41,0,0,0-.706,1.532c-.806,2.347-.894,2.273-1.583,4.464C90.261,97,90.01,97.9,89.8,98.749c-.021.081-.06.24-.137.558-.363,1.483-.59,2.413-.809,3.355a18.971,18.971,0,0,1-.6,2.544,7.749,7.749,0,0,1-1.372,2.135,8.44,8.44,0,0,1-2.384,1.81,12.427,12.427,0,0,1-3.875,1.293,18.7,18.7,0,0,1-3.92.33,17.868,17.868,0,0,1-4.678-.489,11.694,11.694,0,0,1-4.726-2.206A7.355,7.355,0,0,1,65.84,106.5a6.943,6.943,0,0,1-.891-1.915c-.2-.966-.744-3.494-1.311-5.644-.235-.892-.285-1-.586-2.156-.221-.849-.318-1.269-.554-1.949-.084-.243-.074-.207-.412-1.1-.347-.927-.343-.951-.558-1.515a17.326,17.326,0,0,0-.75-1.813,9.036,9.036,0,0,0-1-1.519,6.538,6.538,0,0,0-1.3-.991,6.658,6.658,0,0,0-1.259-.557,27.152,27.152,0,0,0-4.873-1.154C49.443,85.82,46.8,85.686,44.93,85.634Z"/>
    </pattern>
  </defs>
  <g id="Layer_4" data-name="Layer 4">
    <rect class="cls-4" width="1887.592" height="566.828"/>
  </g>
</svg>
