<svg xmlns="http://www.w3.org/2000/svg" width="500" height="500" viewBox="0 0 500 500">
  <defs>
    <style>
      .cls-1 {
        fill: #fcc425;
      }

      .cls-2 {
        fill: #7e8d94;
      }

      .cls-2, .cls-4 {
        stroke: #0387ae;
      }

      .cls-2, .cls-3, .cls-4 {
        stroke-miterlimit: 10;
      }

      .cls-3 {
        fill: #b6c4cd;
        stroke: #727c85;
        stroke-width: 12px;
      }

      .cls-4 {
        fill: #029fd6;
        stroke-width: 6px;
      }
    </style>
  </defs>
  <g id="Layer_5" data-name="Layer 5">
    <rect class="cls-1" width="500" height="500"/>
  </g>
  <g id="Layer_1" data-name="Layer 1">
    <g id="Layer_4" data-name="Layer 4">
      <polygon class="cls-2" points="237.434 249.872 237.579 109.724 250 99.074 262.323 109.172 262.566 242.583 344.198 289.23 348.762 305.965 331.732 311.046 243.767 260.78 237.434 249.872"/>
    </g>
    <path class="cls-3" d="M451.064,250c0,111.044-90.02,201.064-201.064,201.064S48.936,361.044,48.936,250,138.956,48.936,250,48.936,451.064,138.956,451.064,250Zm-188.5-138.359a12.566,12.566,0,1,0-25.132,0V249.872a12.566,12.566,0,0,0,6.333,10.908l87.965,50.266A12.567,12.567,0,0,0,344.2,289.23l-81.632-46.647Z"/>
    <g id="Layer_3" data-name="Layer 3">
      <g id="Layer_2" data-name="Layer 2">
        <circle class="cls-4" cx="250.477" cy="73.995" r="12.898"/>
        <circle class="cls-4" cx="81.382" cy="250" r="12.898"/>
        <circle class="cls-4" cx="424.611" cy="250" r="12.898"/>
        <circle class="cls-4" cx="250.477" cy="418.223" r="12.898"/>
      </g>
    </g>
  </g>
</svg>
