<svg xmlns="http://www.w3.org/2000/svg" width="138.315" height="40.236" viewBox="0 0 138.315 40.236">
  <g id="Layer_1" data-name="Layer 1">
    <g>
      <path d="M8.593,55.84V42.181H16.81a20.278,20.278,0,0,1,4.762.447,5.4,5.4,0,0,1,2.6,1.29,2.823,2.823,0,0,1,.817,2.041,2.4,2.4,0,0,1-.919,1.871,6.437,6.437,0,0,1-2.719,1.223,19.789,19.789,0,0,1-4.5.43H13.212V55.84Zm4.619-7.723h2.126a20.85,20.85,0,0,0,3.148-.185,3.1,3.1,0,0,0,1.635-.65,1.71,1.71,0,0,0,.49-1.307,2.71,2.71,0,0,0-.347-1.5,2.126,2.126,0,0,0-1.451-.725,20.8,20.8,0,0,0-3.434-.2H13.212Z" transform="translate(-8.566 -15.773)"/>
      <path d="M28.214,55.84V42.181h6.663a34.107,34.107,0,0,1,5.478.363,7.3,7.3,0,0,1,3.209,1.163,2.523,2.523,0,0,1,1.042,2.1,2.657,2.657,0,0,1-.408,1.442,3.153,3.153,0,0,1-1.308,1.1,7.785,7.785,0,0,1-2.372.649l4.7,6.846H40.764l-4.333-6.408h-3.6V55.84Zm4.619-7.773h1.758a20.293,20.293,0,0,0,3.189-.2,3.69,3.69,0,0,0,1.8-.692,1.7,1.7,0,0,0,.572-1.365,1.8,1.8,0,0,0-1.063-1.729,10.912,10.912,0,0,0-4.211-.531H32.833Z" transform="translate(-8.566 -15.773)"/>
      <path d="M49.676,55.84V42.181h4.537V55.84Z" transform="translate(-8.566 -15.773)"/>
      <path d="M59.567,55.84V42.181h3.148l9.4,9.073V42.181H75.96V55.84H73.017l-9.525-9.325V55.84Z" transform="translate(-8.566 -15.773)"/>
      <path d="M84.789,55.84V43.6h-5.6V42.181H94.845V43.6H89.409V55.84Z" transform="translate(-8.566 -15.773)"/>
      <path d="M98.278,55.84V42.181h4.538V55.84Z" transform="translate(-8.566 -15.773)"/>
      <path d="M108.17,55.84V42.181h3.148l9.4,9.073V42.181h3.843V55.84H121.62L112.1,46.515V55.84Z" transform="translate(-8.566 -15.773)"/>
      <path d="M137.643,56.009a18.17,18.17,0,0,1-4.967-.548,5.24,5.24,0,0,1-2.7-1.594,3.887,3.887,0,0,1-.838-2.512v-4.57a4.261,4.261,0,0,1,.757-2.555,4.824,4.824,0,0,1,2.7-1.61,20.58,20.58,0,0,1,5.417-.557,23.553,23.553,0,0,1,5.007.43,5.472,5.472,0,0,1,2.76,1.315,3.084,3.084,0,0,1,.858,2.235v.506H142.3v-.422a3.233,3.233,0,0,0-.286-1.458,1.838,1.838,0,0,0-1.165-.844,9.961,9.961,0,0,0-2.76-.278,8.212,8.212,0,0,0-2.963.388,1.855,1.855,0,0,0-1.144,1.054,4.674,4.674,0,0,0-.226,1.509v5.059a3.469,3.469,0,0,0,.348,1.636,2.165,2.165,0,0,0,1.329.978,9.354,9.354,0,0,0,2.779.32,8.539,8.539,0,0,0,2.78-.354,2.332,2.332,0,0,0,1.349-1.045,3.634,3.634,0,0,0,.367-1.72v-.945H138.5V49.078h8.38V55.84h-2.9l-.449-1.568a4.711,4.711,0,0,1-2.044,1.248A12,12,0,0,1,137.643,56.009Z" transform="translate(-8.566 -15.773)"/>
    </g>
  </g>
  <g id="Layer_2" data-name="Layer 2">
    <g>
      <path d="M8.566,40.512V15.985h8.3V38.059H32.082v2.453Z" transform="translate(-8.566 -15.773)"/>
      <path d="M52.511,40.784a38.381,38.381,0,0,1-9.627-.968,10.057,10.057,0,0,1-5.144-2.771A6.288,6.288,0,0,1,36.2,32.821v-9.3a5.981,5.981,0,0,1,1.58-4.164A10.311,10.311,0,0,1,42.921,16.7a39.747,39.747,0,0,1,9.59-.923,38.632,38.632,0,0,1,9.553.939,10.45,10.45,0,0,1,5.107,2.664,5.932,5.932,0,0,1,1.58,4.149v9.326a6.107,6.107,0,0,1-1.58,4.178A10.394,10.394,0,0,1,62.064,39.8,36.893,36.893,0,0,1,52.511,40.784Zm0-2.695a16.841,16.841,0,0,0,5-.56,3.913,3.913,0,0,0,2.278-1.574,4.668,4.668,0,0,0,.587-2.377V22.828a4.5,4.5,0,0,0-.587-2.346,3.866,3.866,0,0,0-2.278-1.515,17.787,17.787,0,0,0-5-.529,18.187,18.187,0,0,0-5.034.529,3.882,3.882,0,0,0-2.315,1.515,4.481,4.481,0,0,0-.588,2.346v10.75a4.649,4.649,0,0,0,.588,2.377,3.926,3.926,0,0,0,2.315,1.574A17.217,17.217,0,0,0,52.511,38.089Z" transform="translate(-8.566 -15.773)"/>
      <path d="M76.908,40.512V15.985H90.576a58.859,58.859,0,0,1,7.017.363,21.354,21.354,0,0,1,4.961,1.121,6.888,6.888,0,0,1,2.94,1.922,4.211,4.211,0,0,1,.955,2.741,3.976,3.976,0,0,1-.918,2.619,6.079,6.079,0,0,1-2.793,1.741,18.937,18.937,0,0,1-4.815.818,23.893,23.893,0,0,1,5.807,1.135A7.6,7.6,0,0,1,107,30.5a4.516,4.516,0,0,1,1.067,3.013,5.02,5.02,0,0,1-.883,2.877,6.8,6.8,0,0,1-2.756,2.21,18.081,18.081,0,0,1-4.775,1.408,41.114,41.114,0,0,1-6.871.5Zm8.3-14.292h4.924a28.827,28.827,0,0,0,5.512-.409,5.047,5.047,0,0,0,2.793-1.317,3.43,3.43,0,0,0,.808-2.362A2.652,2.652,0,0,0,98,19.679a9.1,9.1,0,0,0-3.894-.954q-2.646-.2-6.908-.2H85.21Zm0,11.839H90.8q5.585,0,7.459-1.075a3.7,3.7,0,0,0,1.873-3.467,3.612,3.612,0,0,0-.992-2.589,6.363,6.363,0,0,0-3.16-1.574,25.623,25.623,0,0,0-5.842-.53H85.21Z" transform="translate(-8.566 -15.773)"/>
      <path d="M130.624,40.784A38.378,38.378,0,0,1,121,39.816a10.061,10.061,0,0,1-5.144-2.771,6.293,6.293,0,0,1-1.543-4.224v-9.3a5.981,5.981,0,0,1,1.58-4.164,10.316,10.316,0,0,1,5.144-2.665,39.749,39.749,0,0,1,9.589-.923,38.63,38.63,0,0,1,9.554.939,10.454,10.454,0,0,1,5.108,2.664,5.937,5.937,0,0,1,1.58,4.149v9.326a6.111,6.111,0,0,1-1.58,4.178,10.4,10.4,0,0,1-5.108,2.771A36.891,36.891,0,0,1,130.624,40.784Zm0-2.695a16.827,16.827,0,0,0,5-.56,3.913,3.913,0,0,0,2.279-1.574,4.669,4.669,0,0,0,.588-2.377V22.828a4.5,4.5,0,0,0-.588-2.346,3.865,3.865,0,0,0-2.279-1.515,17.773,17.773,0,0,0-5-.529,18.188,18.188,0,0,0-5.033.529,3.882,3.882,0,0,0-2.315,1.515,4.481,4.481,0,0,0-.588,2.346v10.75a4.649,4.649,0,0,0,.588,2.377,3.926,3.926,0,0,0,2.315,1.574A17.219,17.219,0,0,0,130.624,38.089Z" transform="translate(-8.566 -15.773)"/>
    </g>
  </g>
</svg>
